<svg width="312" height="156" viewBox="0 0 312 156" fill="none" xmlns="http://www.w3.org/2000/svg">
<path opacity="0.05" d="M262.157 42.3831L256.902 45.1801L251.308 34.669C243.588 20.1636 225.55 14.6565 211.045 22.3763C196.539 30.0961 191.032 48.1339 198.752 62.6393L204.346 73.1504L199.09 75.9475C193.309 79.0242 191.097 86.2716 194.173 92.0527L222.143 144.608C225.22 150.389 232.468 152.602 238.249 149.525L301.316 115.961C307.097 112.884 309.31 105.637 306.233 99.8558L278.263 47.3001C275.186 41.519 267.939 39.3063 262.157 42.3831ZM209.263 57.0452C204.62 48.321 207.914 37.5305 216.639 32.8874C225.363 28.2443 236.154 31.5388 240.797 40.263L246.391 50.7742L214.857 67.5564L209.263 57.0452ZM290.466 108.247L237.91 136.217C235.02 137.756 231.396 136.649 229.858 133.759L207.481 91.7142C205.943 88.8236 207.049 85.1999 209.94 83.6616L262.496 55.6912C265.386 54.1529 269.01 55.2592 270.548 58.1498L292.925 100.194C294.463 103.085 293.357 106.709 290.466 108.247ZM255.797 106.465C261.578 103.389 263.791 96.1413 260.714 90.3602C257.637 84.5791 250.39 82.3664 244.609 85.4431C238.828 88.5198 236.615 95.7672 239.692 101.548C242.769 107.329 250.016 109.542 255.797 106.465Z" fill="#009EBE"/>
<path opacity="0.5" d="M161.333 110.667C161.333 112.133 160.133 113.333 158.667 113.333C157.2 113.333 156 112.133 156 110.667C156 109.2 157.2 108 158.667 108C160.133 108 161.333 109.2 161.333 110.667ZM158.667 100C157.2 100 156 101.2 156 102.667C156 104.133 157.2 105.333 158.667 105.333C160.133 105.333 161.333 104.133 161.333 102.667C161.333 101.2 160.133 100 158.667 100ZM158.667 92C157.2 92 156 93.2 156 94.6667C156 96.1333 157.2 97.3333 158.667 97.3333C160.133 97.3333 161.333 96.1333 161.333 94.6667C161.333 93.2 160.133 92 158.667 92ZM166.667 97.3333C168.133 97.3333 169.333 96.1333 169.333 94.6667C169.333 93.2 168.133 92 166.667 92C165.2 92 164 93.2 164 94.6667C164 96.1333 165.2 97.3333 166.667 97.3333ZM166.667 100C165.2 100 164 101.2 164 102.667C164 104.133 165.2 105.333 166.667 105.333C168.133 105.333 169.333 104.133 169.333 102.667C169.333 101.2 168.133 100 166.667 100ZM166.667 108C165.2 108 164 109.2 164 110.667C164 112.133 165.2 113.333 166.667 113.333C168.133 113.333 169.333 112.133 169.333 110.667C169.333 109.2 168.133 108 166.667 108Z" fill="#59D5F8"/>
<path opacity="0.5" d="M132.333 110.667C132.333 112.133 131.133 113.333 129.667 113.333C128.2 113.333 127 112.133 127 110.667C127 109.2 128.2 108 129.667 108C131.133 108 132.333 109.2 132.333 110.667ZM129.667 100C128.2 100 127 101.2 127 102.667C127 104.133 128.2 105.333 129.667 105.333C131.133 105.333 132.333 104.133 132.333 102.667C132.333 101.2 131.133 100 129.667 100ZM129.667 92C128.2 92 127 93.2 127 94.6667C127 96.1333 128.2 97.3333 129.667 97.3333C131.133 97.3333 132.333 96.1333 132.333 94.6667C132.333 93.2 131.133 92 129.667 92ZM137.667 97.3333C139.133 97.3333 140.333 96.1333 140.333 94.6667C140.333 93.2 139.133 92 137.667 92C136.2 92 135 93.2 135 94.6667C135 96.1333 136.2 97.3333 137.667 97.3333ZM137.667 100C136.2 100 135 101.2 135 102.667C135 104.133 136.2 105.333 137.667 105.333C139.133 105.333 140.333 104.133 140.333 102.667C140.333 101.2 139.133 100 137.667 100ZM137.667 108C136.2 108 135 109.2 135 110.667C135 112.133 136.2 113.333 137.667 113.333C139.133 113.333 140.333 112.133 140.333 110.667C140.333 109.2 139.133 108 137.667 108Z" fill="white"/>
<path d="M110.506 100.565L106.472 100.215L104.897 96.5063C104.614 95.8313 103.647 95.8313 103.364 96.5063L101.789 100.223L97.7641 100.565C97.0308 100.623 96.7308 101.54 97.2891 102.023L100.347 104.673L99.4308 108.606C99.2641 109.323 100.039 109.89 100.672 109.506L104.131 107.423L107.589 109.515C108.222 109.898 108.997 109.331 108.831 108.615L107.914 104.673L110.972 102.023C111.531 101.54 111.239 100.623 110.506 100.565ZM104.131 105.865L100.997 107.756L101.831 104.19L99.0641 101.79L102.714 101.473L104.131 98.1146L105.556 101.481L109.206 101.798L106.439 104.198L107.272 107.765L104.131 105.865Z" fill="#7D949D"/>
<path d="M78.1308 107.415L81.5891 109.506C82.2225 109.89 82.9975 109.323 82.8308 108.606L81.9141 104.673L84.9725 102.023C85.5308 101.54 85.2308 100.623 84.4975 100.565L80.4725 100.223L78.8975 96.5063C78.6141 95.8313 77.6475 95.8313 77.3641 96.5063L75.7891 100.215L71.7641 100.556C71.0308 100.615 70.7308 101.531 71.2891 102.015L74.3475 104.665L73.4308 108.598C73.2641 109.315 74.0391 109.881 74.6725 109.498L78.1308 107.415Z" fill="#009EBE"/>
<path d="M49.6675 106.667H48.6142L48.2408 106.307C49.8408 104.441 50.6675 101.894 50.2142 99.1875C49.5875 95.4808 46.4942 92.5208 42.7608 92.0675C37.1208 91.3742 32.3742 96.1208 33.0675 101.761C33.5208 105.494 36.4808 108.587 40.1875 109.214C42.8942 109.667 45.4408 108.841 47.3075 107.241L47.6675 107.614V108.667L53.3342 114.334C53.8808 114.881 54.7742 114.881 55.3208 114.334C55.8675 113.788 55.8675 112.894 55.3208 112.347L49.6675 106.667ZM41.6675 106.667C38.3475 106.667 35.6675 103.988 35.6675 100.668C35.6675 97.3475 38.3475 94.6675 41.6675 94.6675C44.9875 94.6675 47.6675 97.3475 47.6675 100.668C47.6675 103.988 44.9875 106.667 41.6675 106.667Z" fill="#009EBE"/>
<path d="M10 103.625C11.3583 103.625 12.5583 103.95 13.5333 104.375C14.4333 104.775 15 105.675 15 106.65V107.167C15 107.625 14.625 108 14.1667 108H5.83333C5.375 108 5 107.625 5 107.167V106.658C5 105.675 5.56667 104.775 6.46667 104.383C7.44167 103.95 8.64167 103.625 10 103.625ZM3.33333 103.833C4.25 103.833 5 103.083 5 102.167C5 101.25 4.25 100.5 3.33333 100.5C2.41667 100.5 1.66667 101.25 1.66667 102.167C1.66667 103.083 2.41667 103.833 3.33333 103.833ZM4.275 104.75C3.96667 104.7 3.65833 104.667 3.33333 104.667C2.50833 104.667 1.725 104.842 1.01667 105.15C0.4 105.417 0 106.017 0 106.692V107.167C0 107.625 0.375 108 0.833333 108H3.75V106.658C3.75 105.967 3.94167 105.317 4.275 104.75ZM16.6667 103.833C17.5833 103.833 18.3333 103.083 18.3333 102.167C18.3333 101.25 17.5833 100.5 16.6667 100.5C15.75 100.5 15 101.25 15 102.167C15 103.083 15.75 103.833 16.6667 103.833ZM20 106.692C20 106.017 19.6 105.417 18.9833 105.15C18.275 104.842 17.4917 104.667 16.6667 104.667C16.3417 104.667 16.0333 104.7 15.725 104.75C16.0583 105.317 16.25 105.967 16.25 106.658V108H19.1667C19.625 108 20 107.625 20 107.167V106.692ZM10 98C11.3833 98 12.5 99.1167 12.5 100.5C12.5 101.883 11.3833 103 10 103C8.61667 103 7.5 101.883 7.5 100.5C7.5 99.1167 8.61667 98 10 98Z" fill="#009EBE"/>
<path d="M50.3333 69.6667H43.6667V76.3333C43.6667 77.0667 43.0667 77.6667 42.3333 77.6667C41.6 77.6667 41 77.0667 41 76.3333V69.6667H34.3333C33.6 69.6667 33 69.0667 33 68.3333C33 67.6 33.6 67 34.3333 67H41V60.3333C41 59.6 41.6 59 42.3333 59C43.0667 59 43.6667 59.6 43.6667 60.3333V67H50.3333C51.0667 67 51.6667 67.6 51.6667 68.3333C51.6667 69.0667 51.0667 69.6667 50.3333 69.6667Z" fill="#009EBE"/>
</svg>
