<svg width="312" height="156" viewBox="0 0 312 156" fill="none" xmlns="http://www.w3.org/2000/svg">
<path opacity="0.05" d="M262.157 42.3829L256.902 45.18L251.308 34.6688C243.588 20.1635 225.55 14.6563 211.045 22.3762C196.539 30.096 191.032 48.1338 198.752 62.6392L204.346 73.1503L199.09 75.9474C193.309 79.0241 191.097 86.2714 194.173 92.0526L222.143 144.608C225.22 150.389 232.468 152.602 238.249 149.525L301.316 115.961C307.097 112.884 309.31 105.637 306.233 99.8557L278.263 47.3C275.186 41.5189 267.939 39.3062 262.157 42.3829ZM209.263 57.0451C204.62 48.3209 207.914 37.5304 216.639 32.8873C225.363 28.2442 236.154 31.5387 240.797 40.2629L246.391 50.774L214.857 67.5562L209.263 57.0451ZM290.466 108.247L237.91 136.217C235.02 137.756 231.396 136.649 229.858 133.759L207.481 91.7141C205.943 88.8235 207.049 85.1998 209.94 83.6615L262.496 55.6911C265.386 54.1527 269.01 55.2591 270.548 58.1496L292.925 100.194C294.463 103.085 293.357 106.708 290.466 108.247ZM255.797 106.465C261.578 103.389 263.791 96.1412 260.714 90.3601C257.637 84.5789 250.39 82.3663 244.609 85.443C238.828 88.5197 236.615 95.7671 239.692 101.548C242.769 107.329 250.016 109.542 255.797 106.465Z" fill="#009EBE"/>
<path opacity="0.5" d="M161.333 110.667C161.333 112.133 160.133 113.333 158.667 113.333C157.2 113.333 156 112.133 156 110.667C156 109.2 157.2 108 158.667 108C160.133 108 161.333 109.2 161.333 110.667ZM158.667 100C157.2 100 156 101.2 156 102.667C156 104.133 157.2 105.333 158.667 105.333C160.133 105.333 161.333 104.133 161.333 102.667C161.333 101.2 160.133 100 158.667 100ZM158.667 92C157.2 92 156 93.2 156 94.6667C156 96.1333 157.2 97.3333 158.667 97.3333C160.133 97.3333 161.333 96.1333 161.333 94.6667C161.333 93.2 160.133 92 158.667 92ZM166.667 97.3333C168.133 97.3333 169.333 96.1333 169.333 94.6667C169.333 93.2 168.133 92 166.667 92C165.2 92 164 93.2 164 94.6667C164 96.1333 165.2 97.3333 166.667 97.3333ZM166.667 100C165.2 100 164 101.2 164 102.667C164 104.133 165.2 105.333 166.667 105.333C168.133 105.333 169.333 104.133 169.333 102.667C169.333 101.2 168.133 100 166.667 100ZM166.667 108C165.2 108 164 109.2 164 110.667C164 112.133 165.2 113.333 166.667 113.333C168.133 113.333 169.333 112.133 169.333 110.667C169.333 109.2 168.133 108 166.667 108Z" fill="#59D5F8"/>
<path opacity="0.5" d="M132.333 110.667C132.333 112.133 131.133 113.333 129.667 113.333C128.2 113.333 127 112.133 127 110.667C127 109.2 128.2 108 129.667 108C131.133 108 132.333 109.2 132.333 110.667ZM129.667 100C128.2 100 127 101.2 127 102.667C127 104.133 128.2 105.333 129.667 105.333C131.133 105.333 132.333 104.133 132.333 102.667C132.333 101.2 131.133 100 129.667 100ZM129.667 92C128.2 92 127 93.2 127 94.6667C127 96.1333 128.2 97.3333 129.667 97.3333C131.133 97.3333 132.333 96.1333 132.333 94.6667C132.333 93.2 131.133 92 129.667 92ZM137.667 97.3333C139.133 97.3333 140.333 96.1333 140.333 94.6667C140.333 93.2 139.133 92 137.667 92C136.2 92 135 93.2 135 94.6667C135 96.1333 136.2 97.3333 137.667 97.3333ZM137.667 100C136.2 100 135 101.2 135 102.667C135 104.133 136.2 105.333 137.667 105.333C139.133 105.333 140.333 104.133 140.333 102.667C140.333 101.2 139.133 100 137.667 100ZM137.667 108C136.2 108 135 109.2 135 110.667C135 112.133 136.2 113.333 137.667 113.333C139.133 113.333 140.333 112.133 140.333 110.667C140.333 109.2 139.133 108 137.667 108Z" fill="white"/>
<path d="M110.506 100.565L106.472 100.215L104.897 96.5063C104.614 95.8313 103.647 95.8313 103.364 96.5063L101.789 100.223L97.7641 100.565C97.0308 100.623 96.7308 101.54 97.2891 102.023L100.347 104.673L99.4308 108.606C99.2641 109.323 100.039 109.89 100.672 109.506L104.131 107.423L107.589 109.515C108.222 109.898 108.997 109.331 108.831 108.615L107.914 104.673L110.972 102.023C111.531 101.54 111.239 100.623 110.506 100.565ZM104.131 105.865L100.997 107.756L101.831 104.19L99.0641 101.79L102.714 101.473L104.131 98.1146L105.556 101.481L109.206 101.798L106.439 104.198L107.272 107.765L104.131 105.865Z" fill="#7D949D"/>
<path d="M49.6675 106.667H48.6142L48.2408 106.307C49.8408 104.441 50.6675 101.894 50.2142 99.1875C49.5875 95.4808 46.4942 92.5208 42.7608 92.0675C37.1208 91.3742 32.3742 96.1208 33.0675 101.761C33.5208 105.494 36.4808 108.587 40.1875 109.214C42.8942 109.667 45.4408 108.841 47.3075 107.241L47.6675 107.614V108.667L53.3342 114.334C53.8808 114.881 54.7742 114.881 55.3208 114.334C55.8675 113.788 55.8675 112.894 55.3208 112.347L49.6675 106.667ZM41.6675 106.667C38.3475 106.667 35.6675 103.988 35.6675 100.668C35.6675 97.3475 38.3475 94.6675 41.6675 94.6675C44.9875 94.6675 47.6675 97.3475 47.6675 100.668C47.6675 103.988 44.9875 106.667 41.6675 106.667Z" fill="#009EBE"/>
<path d="M10 103.625C11.3583 103.625 12.5583 103.95 13.5333 104.375C14.4333 104.775 15 105.675 15 106.65V107.167C15 107.625 14.625 108 14.1667 108H5.83333C5.375 108 5 107.625 5 107.167V106.658C5 105.675 5.56667 104.775 6.46667 104.383C7.44167 103.95 8.64167 103.625 10 103.625ZM3.33333 103.833C4.25 103.833 5 103.083 5 102.167C5 101.25 4.25 100.5 3.33333 100.5C2.41667 100.5 1.66667 101.25 1.66667 102.167C1.66667 103.083 2.41667 103.833 3.33333 103.833ZM4.275 104.75C3.96667 104.7 3.65833 104.667 3.33333 104.667C2.50833 104.667 1.725 104.842 1.01667 105.15C0.4 105.417 0 106.017 0 106.692V107.167C0 107.625 0.375 108 0.833333 108H3.75V106.658C3.75 105.967 3.94167 105.317 4.275 104.75ZM16.6667 103.833C17.5833 103.833 18.3333 103.083 18.3333 102.167C18.3333 101.25 17.5833 100.5 16.6667 100.5C15.75 100.5 15 101.25 15 102.167C15 103.083 15.75 103.833 16.6667 103.833ZM20 106.692C20 106.017 19.6 105.417 18.9833 105.15C18.275 104.842 17.4917 104.667 16.6667 104.667C16.3417 104.667 16.0333 104.7 15.725 104.75C16.0583 105.317 16.25 105.967 16.25 106.658V108H19.1667C19.625 108 20 107.625 20 107.167V106.692ZM10 98C11.3833 98 12.5 99.1167 12.5 100.5C12.5 101.883 11.3833 103 10 103C8.61667 103 7.5 101.883 7.5 100.5C7.5 99.1167 8.61667 98 10 98Z" fill="#009EBE"/>
<path d="M50.3333 69.6667H43.6667V76.3333C43.6667 77.0667 43.0667 77.6667 42.3333 77.6667C41.6 77.6667 41 77.0667 41 76.3333V69.6667H34.3333C33.6 69.6667 33 69.0667 33 68.3333C33 67.6 33.6 67 34.3333 67H41V60.3333C41 59.6 41.6 59 42.3333 59C43.0667 59 43.6667 59.6 43.6667 60.3333V67H50.3333C51.0667 67 51.6667 67.6 51.6667 68.3333C51.6667 69.0667 51.0667 69.6667 50.3333 69.6667Z" fill="#009EBE"/>
<path d="M8.66667 65.3333C9.58333 65.3333 10.3333 64.5833 10.3333 63.6667C10.3333 62.75 9.58333 62 8.66667 62C7.75 62 7 62.75 7 63.6667C7 64.5833 7.75 65.3333 8.66667 65.3333ZM8.66667 67C7.75 67 7 67.75 7 68.6667C7 69.5833 7.75 70.3333 8.66667 70.3333C9.58333 70.3333 10.3333 69.5833 10.3333 68.6667C10.3333 67.75 9.58333 67 8.66667 67ZM8.66667 72C7.75 72 7 72.75 7 73.6667C7 74.5833 7.75 75.3333 8.66667 75.3333C9.58333 75.3333 10.3333 74.5833 10.3333 73.6667C10.3333 72.75 9.58333 72 8.66667 72Z" fill="#7D949D"/>
<path d="M7 17.4625V20.5025C7 20.7825 7.22 21.0025 7.5 21.0025H10.54C10.67 21.0025 10.8 20.9525 10.89 20.8525L21.81 9.9425L18.06 6.1925L7.15 17.1025C7.05 17.2025 7 17.3225 7 17.4625ZM24.71 7.0425C25.1 6.6525 25.1 6.0225 24.71 5.6325L22.37 3.2925C21.98 2.9025 21.35 2.9025 20.96 3.2925L19.13 5.1225L22.88 8.8725L24.71 7.0425Z" fill="#009EBE"/>
<path d="M7 47.4625V50.5025C7 50.7825 7.22 51.0025 7.5 51.0025H10.54C10.67 51.0025 10.8 50.9525 10.89 50.8525L21.81 39.9425L18.06 36.1925L7.15 47.1025C7.05 47.2025 7 47.3225 7 47.4625ZM24.71 37.0425C25.1 36.6525 25.1 36.0225 24.71 35.6325L22.37 33.2925C21.98 32.9025 21.35 32.9025 20.96 33.2925L19.13 35.1225L22.88 38.8725L24.71 37.0425Z" fill="#7D949D"/>
<path d="M49 1H38C36.9 1 36 1.9 36 3V16C36 16.55 36.45 17 37 17C37.55 17 38 16.55 38 16V4C38 3.45 38.45 3 39 3H49C49.55 3 50 2.55 50 2C50 1.45 49.55 1 49 1ZM53 5H42C40.9 5 40 5.9 40 7V21C40 22.1 40.9 23 42 23H53C54.1 23 55 22.1 55 21V7C55 5.9 54.1 5 53 5ZM52 21H43C42.45 21 42 20.55 42 20V8C42 7.45 42.45 7 43 7H52C52.55 7 53 7.45 53 8V20C53 20.55 52.55 21 52 21Z" fill="#009EBE"/>
<path d="M49 30H38C36.9 30 36 30.9 36 32V45C36 45.55 36.45 46 37 46C37.55 46 38 45.55 38 45V33C38 32.45 38.45 32 39 32H49C49.55 32 50 31.55 50 31C50 30.45 49.55 30 49 30ZM53 34H42C40.9 34 40 34.9 40 36V50C40 51.1 40.9 52 42 52H53C54.1 52 55 51.1 55 50V36C55 34.9 54.1 34 53 34ZM52 50H43C42.45 50 42 49.55 42 49V37C42 36.45 42.45 36 43 36H52C52.55 36 53 36.45 53 37V49C53 49.55 52.55 50 52 50Z" fill="#7D949D"/>
<path d="M68 19C68 20.1 68.9 21 70 21H78C79.1 21 80 20.1 80 19V9C80 7.9 79.1 7 78 7H70C68.9 7 68 7.9 68 9V19ZM71 9H77C77.55 9 78 9.45 78 10V18C78 18.55 77.55 19 77 19H71C70.45 19 70 18.55 70 18V10C70 9.45 70.45 9 71 9ZM77.5 4L76.79 3.29C76.61 3.11 76.35 3 76.09 3H71.91C71.65 3 71.39 3.11 71.21 3.29L70.5 4H68C67.45 4 67 4.45 67 5C67 5.55 67.45 6 68 6H80C80.55 6 81 5.55 81 5C81 4.45 80.55 4 80 4H77.5Z" fill="#009EBE"/>
<path d="M68 49C68 50.1 68.9 51 70 51H78C79.1 51 80 50.1 80 49V39C80 37.9 79.1 37 78 37H70C68.9 37 68 37.9 68 39V49ZM71 39H77C77.55 39 78 39.45 78 40V48C78 48.55 77.55 49 77 49H71C70.45 49 70 48.55 70 48V40C70 39.45 70.45 39 71 39ZM77.5 34L76.79 33.29C76.61 33.11 76.35 33 76.09 33H71.91C71.65 33 71.39 33.11 71.21 33.29L70.5 34H68C67.45 34 67 34.45 67 35C67 35.55 67.45 36 68 36H80C80.55 36 81 35.55 81 35C81 34.45 80.55 34 80 34H77.5Z" fill="#7D949D"/>
<path d="M111.54 5.23L110.15 3.55C109.88 3.21 109.47 3 109 3H97C96.53 3 96.12 3.21 95.84 3.55L94.46 5.23C94.17 5.57 94 6.02 94 6.5V19C94 20.1 94.9 21 96 21H110C111.1 21 112 20.1 112 19V6.5C112 6.02 111.83 5.57 111.54 5.23ZM102.65 17.15L97.5 12H101V10H105V12H108.5L103.35 17.15C103.16 17.34 102.84 17.34 102.65 17.15ZM96.12 5L96.93 4H108.93L109.87 5H96.12Z" fill="#009EBE"/>
<path d="M111.54 35.23L110.15 33.55C109.88 33.21 109.47 33 109 33H97C96.53 33 96.12 33.21 95.84 33.55L94.46 35.23C94.17 35.57 94 36.02 94 36.5V49C94 50.1 94.9 51 96 51H110C111.1 51 112 50.1 112 49V36.5C112 36.02 111.83 35.57 111.54 35.23ZM102.65 47.15L97.5 42H101V40H105V42H108.5L103.35 47.15C103.16 47.34 102.84 47.34 102.65 47.15ZM96.12 35L96.93 34H108.93L109.87 35H96.12Z" fill="#7D949D"/>
<path d="M135 3C129.48 3 125 7.48 125 13C125 18.52 129.48 23 135 23C140.52 23 145 18.52 145 13C145 7.48 140.52 3 135 3ZM134 20.93C130.05 20.44 127 17.08 127 13C127 12.38 127.08 11.79 127.21 11.21L132 16V17C132 18.1 132.9 19 134 19V20.93ZM140.9 18.39C140.64 17.58 139.9 17 139 17H138V14C138 13.45 137.55 13 137 13H131V11H133C133.55 11 134 10.55 134 10V8H136C137.1 8 138 7.1 138 6V5.59C140.93 6.78 143 9.65 143 13C143 15.08 142.2 16.97 140.9 18.39Z" fill="#009EBE"/>
<path d="M135 31C129.48 31 125 35.48 125 41C125 46.52 129.48 51 135 51C140.52 51 145 46.52 145 41C145 35.48 140.52 31 135 31ZM134 48.93C130.05 48.44 127 45.08 127 41C127 40.38 127.08 39.79 127.21 39.21L132 44V45C132 46.1 132.9 47 134 47V48.93ZM140.9 46.39C140.64 45.58 139.9 45 139 45H138V42C138 41.45 137.55 41 137 41H131V39H133C133.55 39 134 38.55 134 38V36H136C137.1 36 138 35.1 138 34V33.59C140.93 34.78 143 37.65 143 41C143 43.08 142.2 44.97 140.9 46.39Z" fill="#7D949D"/>
<path d="M162.296 13.8825L164.886 11.2925C165.276 10.9025 165.906 10.9025 166.296 11.2925L168.886 13.8825C169.516 14.5125 169.066 15.5925 168.176 15.5925H162.996C162.106 15.5925 161.666 14.5125 162.296 13.8825Z" fill="#33B9DC"/>
<path d="M78.1308 107.415L81.5891 109.506C82.2225 109.89 82.9975 109.323 82.8308 108.606L81.9141 104.673L84.9725 102.023C85.5308 101.54 85.2308 100.623 84.4975 100.565L80.4725 100.223L78.8975 96.5063C78.6141 95.8313 77.6475 95.8313 77.3641 96.5063L75.7891 100.215L71.7641 100.556C71.0308 100.615 70.7308 101.531 71.2891 102.015L74.3475 104.665L73.4308 108.598C73.2641 109.315 74.0391 109.881 74.6725 109.498L78.1308 107.415Z" fill="#FFC451"/>
</svg>
