<svg width="100" height="16" viewBox="0 0 100 16" fill="none" xmlns="http://www.w3.org/2000/svg">
<path d="M84 6.92V8.92H96L90.5 14.42L91.92 15.84L99.84 7.92L91.92 0L90.5 1.42L96 6.92H84Z" fill="#14B8A6"/>
<path d="M71.8401 6.92V8.92H59.8401L65.3401 14.42L63.9201 15.84L56.0001 7.92L63.9201 0L65.3401 1.42L59.8401 6.92H71.8401Z" fill="#14B8A6"/>
<path d="M28 6.92V8.92H40L34.5 14.42L35.92 15.84L43.84 7.92L35.92 0L34.5 1.42L40 6.92H28Z" fill="#7D949D"/>
<path d="M15.8401 6.92V8.92H3.84009L9.34009 14.42L7.92009 15.84L8.7738e-05 7.92L7.92009 0L9.34009 1.42L3.84009 6.92H15.8401Z" fill="#7D949D"/>
</svg>
