<svg width="163" height="19" viewBox="0 0 163 19" fill="none" xmlns="http://www.w3.org/2000/svg">
<path d="M69.6667 5.33333C70.5833 5.33333 71.3333 4.58333 71.3333 3.66667C71.3333 2.75 70.5833 2 69.6667 2C68.75 2 68 2.75 68 3.66667C68 4.58333 68.75 5.33333 69.6667 5.33333ZM69.6667 7C68.75 7 68 7.75 68 8.66667C68 9.58333 68.75 10.3333 69.6667 10.3333C70.5833 10.3333 71.3333 9.58333 71.3333 8.66667C71.3333 7.75 70.5833 7 69.6667 7ZM69.6667 12C68.75 12 68 12.75 68 13.6667C68 14.5833 68.75 15.3333 69.6667 15.3333C70.5833 15.3333 71.3333 14.5833 71.3333 13.6667C71.3333 12.75 70.5833 12 69.6667 12Z" fill="#4B626A"/>
<path d="M37 16C37 17.1 37.9 18 39 18H47C48.1 18 49 17.1 49 16V6C49 4.9 48.1 4 47 4H39C37.9 4 37 4.9 37 6V16ZM40 6H46C46.55 6 47 6.45 47 7V15C47 15.55 46.55 16 46 16H40C39.45 16 39 15.55 39 15V7C39 6.45 39.45 6 40 6ZM46.5 1L45.79 0.29C45.61 0.11 45.35 0 45.09 0H40.91C40.65 0 40.39 0.11 40.21 0.29L39.5 1H37C36.45 1 36 1.45 36 2C36 2.55 36.45 3 37 3H49C49.55 3 50 2.55 50 2C50 1.45 49.55 1 49 1H46.5Z" fill="#14B8A6"/>
<path d="M126 16C126 17.1 126.9 18 128 18H136C137.1 18 138 17.1 138 16V6C138 4.9 137.1 4 136 4H128C126.9 4 126 4.9 126 6V16ZM129 6H135C135.55 6 136 6.45 136 7V15C136 15.55 135.55 16 135 16H129C128.45 16 128 15.55 128 15V7C128 6.45 128.45 6 129 6ZM135.5 1L134.79 0.29C134.61 0.11 134.35 0 134.09 0H129.91C129.65 0 129.39 0.11 129.21 0.29L128.5 1H126C125.45 1 125 1.45 125 2C125 2.55 125.45 3 126 3H138C138.55 3 139 2.55 139 2C139 1.45 138.55 1 138 1H135.5Z" fill="#7D949D"/>
<path d="M157.222 8.2825L159.165 10.225C159.457 10.5175 159.93 10.5175 160.222 10.225L162.165 8.2825C162.637 7.81 162.3 7 161.632 7H157.747C157.08 7 156.75 7.81 157.222 8.2825Z" fill="#14B8A6"/>
<path d="M0 14.4625V17.5025C0 17.7825 0.22 18.0025 0.5 18.0025H3.54C3.67 18.0025 3.8 17.9525 3.89 17.8525L14.81 6.9425L11.06 3.1925L0.15 14.1025C0.0500001 14.2025 0 14.3225 0 14.4625ZM17.71 4.0425C18.1 3.6525 18.1 3.0225 17.71 2.6325L15.37 0.2925C14.98 -0.0975 14.35 -0.0975 13.96 0.2925L12.13 2.1225L15.88 5.8725L17.71 4.0425Z" fill="#14B8A6"/>
<path d="M89 14.4625V17.5025C89 17.7825 89.22 18.0025 89.5 18.0025H92.54C92.67 18.0025 92.8 17.9525 92.89 17.8525L103.81 6.9425L100.06 3.1925L89.15 14.1025C89.05 14.2025 89 14.3225 89 14.4625ZM106.71 4.0425C107.1 3.6525 107.1 3.0225 106.71 2.6325L104.37 0.2925C103.98 -0.0975 103.35 -0.0975 102.96 0.2925L101.13 2.1225L104.88 5.8725L106.71 4.0425Z" fill="#7D949D"/>
</svg>
