<svg width="392" height="79" viewBox="0 0 392 79" fill="none" xmlns="http://www.w3.org/2000/svg">
<path d="M200 22.498C201.595 22.498 202.9 23.803 202.9 25.398V36.998C202.9 38.593 201.595 39.898 200 39.898C198.405 39.898 197.1 38.593 197.1 36.998V25.398C197.1 23.803 198.405 22.498 200 22.498ZM199.971 7.99805C183.963 7.99805 171 20.99 171 36.998C171 53.006 183.963 65.998 199.971 65.998C216.008 65.998 229 53.006 229 36.998C229 20.99 216.008 7.99805 199.971 7.99805ZM200 60.198C187.182 60.198 176.8 49.816 176.8 36.998C176.8 24.18 187.182 13.798 200 13.798C212.818 13.798 223.2 24.18 223.2 36.998C223.2 49.816 212.818 60.198 200 60.198ZM202.9 51.498H197.1V45.698H202.9V51.498Z" fill="#FFC2C2"/>
<path d="M312.594 17.8119L308.347 12.6786C307.522 11.6397 306.269 10.998 304.833 10.998H268.167C266.731 10.998 265.478 11.6397 264.622 12.6786L260.406 17.8119C259.519 18.8508 259 20.2258 259 21.6925V59.8869C259 63.248 261.75 65.998 265.111 65.998H307.889C311.25 65.998 314 63.248 314 59.8869V21.6925C314 20.2258 313.481 18.8508 312.594 17.8119ZM285.431 54.2342L269.694 38.498H280.389V32.3869H292.611V38.498H303.306L287.569 54.2342C286.989 54.8147 286.011 54.8147 285.431 54.2342V54.2342ZM265.478 17.1092L267.953 14.0536H304.619L307.492 17.1092H265.478Z" fill="#B3EBFF"/>
<path d="M376.842 9.99805H349.053C346.274 9.99805 344 12.289 344 15.089V48.1799C344 49.5799 345.137 50.7253 346.526 50.7253C347.916 50.7253 349.053 49.5799 349.053 48.1799V17.6344C349.053 16.2344 350.189 15.089 351.579 15.089H376.842C378.232 15.089 379.368 13.9435 379.368 12.5435C379.368 11.1435 378.232 9.99805 376.842 9.99805ZM386.947 20.1799H359.158C356.379 20.1799 354.105 22.4708 354.105 25.2708V60.9071C354.105 63.7071 356.379 65.998 359.158 65.998H386.947C389.726 65.998 392 63.7071 392 60.9071V25.2708C392 22.4708 389.726 20.1799 386.947 20.1799ZM384.421 60.9071H361.684C360.295 60.9071 359.158 59.7617 359.158 58.3617V27.8162C359.158 26.4162 360.295 25.2708 361.684 25.2708H384.421C385.811 25.2708 386.947 26.4162 386.947 27.8162V58.3617C386.947 59.7617 385.811 60.9071 384.421 60.9071Z" fill="#B3EBFF"/>
<path d="M115.755 40.3719C113.026 41.8305 111.988 45.2562 113.446 47.9845C114.905 50.7128 118.331 51.7516 121.059 50.293C123.787 48.8343 124.826 45.4087 123.367 42.6803C121.909 39.952 118.483 38.9132 115.755 40.3719ZM124.006 20.0142L121.526 21.3403L118.874 16.3797C115.214 9.53415 106.688 6.94864 99.8422 10.6085C94.1872 13.6319 91.2935 20.0903 92.8103 26.3276C93.1791 27.8526 94.6889 28.7676 96.2139 28.3988C97.7141 28.0432 98.6539 26.5202 98.2851 24.9952C97.378 21.2704 99.0963 17.3857 102.494 15.5691C106.587 13.3811 111.725 14.9393 113.913 19.0318L116.565 23.9924L94.2428 35.9267C91.5145 37.3853 90.4757 40.811 91.9343 43.5393L105.195 68.3421C106.653 71.0704 110.079 72.1092 112.807 70.6506L142.571 54.7382C145.299 53.2795 146.338 49.8538 144.879 47.1255L131.619 22.3227C130.16 19.5944 126.734 18.5556 124.006 20.0142ZM138.593 47.2973C139.322 48.6615 138.802 50.3743 137.438 51.1036L112.636 64.364C111.271 65.0933 109.559 64.5739 108.829 63.2098L98.2209 43.3675C97.4916 42.0034 98.011 40.2905 99.3752 39.5612L124.178 26.3008C125.542 25.5715 127.255 26.0909 127.984 27.4551L138.593 47.2973Z" fill="#B3EBFF"/>
<path d="M44.0083 25.0222L41.5255 26.3436L38.8829 21.378C35.236 14.5256 26.7147 11.924 19.8623 15.5709C13.0098 19.2178 10.4081 27.739 14.055 34.5914L16.6977 39.557L14.2149 40.8783C11.4839 42.3318 10.4386 45.7555 11.892 48.4866L25.1054 73.3143C26.5589 76.0454 29.9826 77.0907 32.7137 75.6372L62.5071 59.7811C65.2381 58.3276 66.2834 54.9039 64.8299 52.1728L51.6166 27.3451C50.1631 24.614 46.7394 23.5688 44.0083 25.0222ZM19.0206 31.9488C16.8272 27.8274 18.3835 22.7298 22.5049 20.5364C26.6264 18.343 31.7239 19.8993 33.9173 24.0207L36.56 28.9863L21.6633 36.9143L19.0206 31.9488ZM57.3816 56.1369L32.5538 69.3503C31.1882 70.077 29.4764 69.5544 28.7497 68.1889L18.1789 48.3267C17.4522 46.9611 17.9749 45.2493 19.3404 44.5225L44.1682 31.3091C45.5338 30.5824 47.2456 31.105 47.9723 32.4706L58.543 52.3328C59.2698 53.6983 58.7471 55.4101 57.3816 56.1369ZM41.0037 55.2953C43.7347 53.8418 44.78 50.4181 43.3266 47.687C41.8731 44.956 38.4494 43.9107 35.7183 45.3642C32.9873 46.8176 31.942 50.2413 33.3954 52.9724C34.8489 55.7034 38.2726 56.7487 41.0037 55.2953Z" fill="#B3EBFF"/>
</svg>
