<svg width="32" height="31" viewBox="0 0 32 31" fill="none" xmlns="http://www.w3.org/2000/svg">
<path fill-rule="evenodd" clip-rule="evenodd" d="M15.9272 30.9999C24.7236 30.9999 31.8545 24.2702 31.8545 15.9687C31.8545 7.6672 24.7236 0.9375 15.9272 0.9375C7.13088 0.9375 0 7.6672 0 15.9687C0 24.2702 7.13088 30.9999 15.9272 30.9999ZM15.9272 28.4088C8.64719 28.4088 2.74559 22.8392 2.74559 15.9687C2.74559 9.09823 8.64719 3.52862 15.9272 3.52862C23.2073 3.52862 29.1089 9.09823 29.1089 15.9687C29.1089 22.8392 23.2073 28.4088 15.9272 28.4088Z" fill="#009EBE"/>
<path d="M6.37134 8.95605H10.0962L13.1951 17.5661L16.2941 8.95605H20.0188L17.4646 15.4961C17.4002 15.4927 17.3357 15.491 17.2711 15.491C15.7383 15.491 14.2484 16.4598 14.2484 17.9191C14.2484 18.4889 14.4867 18.9919 14.859 19.3868C14.4366 19.7902 14.154 20.3155 14.1283 20.9168H11.0426L6.37134 8.95605Z" fill="#009EBE"/>
<path fill-rule="evenodd" clip-rule="evenodd" d="M14.798 17.9191C14.798 16.88 15.8971 16.0368 17.2559 16.0306L17.2711 16.0306C18.6369 16.0306 19.7441 16.8761 19.7441 17.9191C19.7441 18.5227 19.3733 19.0601 18.7962 19.4058C19.4447 19.7655 19.8662 20.3486 19.8662 21.0067C19.8662 22.0994 18.7043 22.9852 17.2711 22.9852C15.8378 22.9852 14.6759 22.0994 14.6759 21.0067C14.6759 20.9766 14.6768 20.9466 14.6786 20.9168C14.7046 20.4721 14.9233 20.0656 15.2725 19.7445C15.411 19.6172 15.5701 19.5033 15.7458 19.4058C15.5736 19.3026 15.4197 19.1823 15.2886 19.0483C14.9805 18.7334 14.798 18.3425 14.798 17.9191ZM17.2711 18.6685C17.6926 18.6685 18.0344 18.4269 18.0344 18.1289C18.0344 17.8309 17.6926 17.5894 17.2711 17.5894C16.8495 17.5894 16.5078 17.8309 16.5078 18.1289C16.5078 18.4269 16.8495 18.6685 17.2711 18.6685ZM17.3016 21.4264C17.7737 21.4264 18.1565 21.158 18.1565 20.8269C18.1565 20.4957 17.7737 20.2273 17.3016 20.2273C16.8295 20.2273 16.4467 20.4957 16.4467 20.8269C16.4467 21.158 16.8295 21.4264 17.3016 21.4264Z" fill="#009EBE"/>
<path fill-rule="evenodd" clip-rule="evenodd" d="M25.3619 17.9191C25.3619 18.5227 24.9911 19.0601 24.414 19.4058C25.0625 19.7655 25.484 20.3486 25.484 21.0067C25.484 22.0994 24.3221 22.9852 22.8888 22.9852C21.4555 22.9852 20.2936 22.0994 20.2936 21.0067C20.2936 20.3486 20.7152 19.7655 21.3636 19.4058C20.7865 19.0601 20.4158 18.5227 20.4158 17.9191C20.4158 16.8761 21.523 16.0306 22.8888 16.0306C24.2547 16.0306 25.3619 16.8761 25.3619 17.9191ZM23.6521 18.1289C23.6521 18.4269 23.3104 18.6685 22.8888 18.6685C22.4673 18.6685 22.1255 18.4269 22.1255 18.1289C22.1255 17.8309 22.4673 17.5894 22.8888 17.5894C23.3104 17.5894 23.6521 17.8309 23.6521 18.1289ZM23.7743 20.8269C23.7743 21.158 23.3915 21.4264 22.9194 21.4264C22.4472 21.4264 22.0645 21.158 22.0645 20.8269C22.0645 20.4957 22.4472 20.2273 22.9194 20.2273C23.3915 20.2273 23.7743 20.4957 23.7743 20.8269Z" fill="#009EBE"/>
</svg>
