<svg width="19" height="18" viewBox="0 0 19 18" fill="none" xmlns="http://www.w3.org/2000/svg">
<path d="M17.8133 9.68454C17.8133 9.00107 17.7567 8.50232 17.6342 7.98511H9.67041V11.0699H14.345C14.2508 11.8366 13.7418 12.9911 12.6109 13.7669L12.595 13.8701L15.113 15.7818L15.2875 15.7989C16.8896 14.3488 17.8133 12.2152 17.8133 9.68454" fill="#4285F4"/>
<path d="M9.67015 17.8126C11.9603 17.8126 13.8829 17.0736 15.2872 15.7991L12.6106 13.7671C11.8943 14.2566 10.933 14.5983 9.67015 14.5983C7.42711 14.5983 5.52337 13.1483 4.84473 11.144L4.74526 11.1523L2.12701 13.1381L2.09277 13.2314C3.48759 15.9468 6.35267 17.8126 9.67015 17.8126Z" fill="#34A853"/>
<path d="M4.84518 11.1439C4.66612 10.6267 4.56249 10.0725 4.56249 9.49988C4.56249 8.92721 4.66612 8.37306 4.83576 7.85585L4.83102 7.74569L2.17995 5.72803L2.09322 5.76846C1.51834 6.89528 1.18848 8.16065 1.18848 9.49988C1.18848 10.8391 1.51834 12.1044 2.09322 13.2312L4.84518 11.1439" fill="#FBBC05"/>
<path d="M9.67019 4.40164C11.2629 4.40164 12.3373 5.07588 12.9499 5.63932L15.3438 3.34875C13.8736 2.00952 11.9603 1.1875 9.67019 1.1875C6.35269 1.1875 3.4876 3.05318 2.09277 5.76857L4.83533 7.85596C5.52339 5.85173 7.42714 4.40164 9.67019 4.40164" fill="#EB4335"/>
</svg>
