<svg width="108" height="74" viewBox="0 0 108 74" fill="none" xmlns="http://www.w3.org/2000/svg">
<path d="M6.58594 65.6523H3.07031L3.05859 63.0625H5.97656C6.44531 63.0625 6.82422 62.9883 7.11328 62.8398C7.40234 62.6836 7.60938 62.457 7.73438 62.1602C7.86719 61.8633 7.93359 61.4922 7.93359 61.0469C7.93359 60.5469 7.86719 60.1445 7.73438 59.8398C7.60938 59.5352 7.40625 59.3125 7.125 59.1719C6.84375 59.0312 6.47656 58.9609 6.02344 58.9609H4.40625V73H0.679688V55.9375H6.02344C6.90625 55.9375 7.69531 56.0312 8.39062 56.2188C9.08594 56.4062 9.67578 56.6953 10.1602 57.0859C10.6445 57.4766 11.0156 57.9648 11.2734 58.5508C11.5312 59.1367 11.6602 59.8281 11.6602 60.625C11.6602 61.3203 11.5234 61.9727 11.25 62.582C10.9844 63.1836 10.5469 63.6719 9.9375 64.0469C9.33594 64.4219 8.52344 64.625 7.5 64.6562L6.58594 65.6523ZM6.45703 73H2.08594L3.45703 69.9883H6.45703C6.88672 69.9883 7.22656 69.8984 7.47656 69.7188C7.73438 69.5312 7.91797 69.2812 8.02734 68.9688C8.13672 68.6562 8.19141 68.3047 8.19141 67.9141C8.19141 67.4531 8.14062 67.0547 8.03906 66.7188C7.9375 66.375 7.76953 66.1133 7.53516 65.9336C7.30859 65.7461 6.99219 65.6523 6.58594 65.6523H3.60938L3.63281 63.0625H7.17188L8.05078 64.0938C9.01953 64.0547 9.78516 64.2227 10.3477 64.5977C10.9102 64.9648 11.3086 65.4531 11.543 66.0625C11.7773 66.6641 11.8945 67.2969 11.8945 67.9609C11.8945 69.0703 11.6914 70 11.2852 70.75C10.8789 71.4922 10.2695 72.0547 9.45703 72.4375C8.65234 72.8125 7.65234 73 6.45703 73Z" fill="#33B9DC"/>
<path d="M13.7344 67.1641V66.168C13.7344 65.168 13.8555 64.2891 14.0977 63.5312C14.3477 62.7734 14.6992 62.1406 15.1523 61.6328C15.6055 61.125 16.1484 60.7422 16.7812 60.4844C17.4219 60.2188 18.1328 60.0859 18.9141 60.0859C19.7109 60.0859 20.4258 60.2188 21.0586 60.4844C21.6992 60.7422 22.2461 61.125 22.6992 61.6328C23.1523 62.1406 23.5 62.7734 23.7422 63.5312C23.9922 64.2891 24.1172 65.168 24.1172 66.168V67.1641C24.1172 68.1562 23.9922 69.0312 23.7422 69.7891C23.5 70.5469 23.1523 71.1836 22.6992 71.6992C22.2461 72.207 21.6992 72.5898 21.0586 72.8477C20.4258 73.1055 19.7188 73.2344 18.9375 73.2344C18.1484 73.2344 17.4336 73.1055 16.793 72.8477C16.1602 72.5898 15.6133 72.207 15.1523 71.6992C14.6992 71.1836 14.3477 70.5469 14.0977 69.7891C13.8555 69.0312 13.7344 68.1562 13.7344 67.1641ZM17.3086 66.168V67.1641C17.3086 67.7266 17.3438 68.2109 17.4141 68.6172C17.4922 69.0234 17.6016 69.3555 17.7422 69.6133C17.8828 69.8711 18.0508 70.0586 18.2461 70.1758C18.4492 70.293 18.6797 70.3516 18.9375 70.3516C19.2344 70.3516 19.4844 70.293 19.6875 70.1758C19.8984 70.0586 20.0664 69.8711 20.1914 69.6133C20.3164 69.3555 20.4062 69.0234 20.4609 68.6172C20.5234 68.2109 20.5547 67.7266 20.5547 67.1641V66.168C20.5547 65.6133 20.5156 65.1367 20.4375 64.7383C20.3672 64.332 20.2617 64 20.1211 63.7422C19.9883 63.4844 19.8164 63.293 19.6055 63.168C19.4023 63.043 19.1719 62.9805 18.9141 62.9805C18.6641 62.9805 18.4375 63.043 18.2344 63.168C18.0391 63.293 17.8711 63.4844 17.7305 63.7422C17.5977 64 17.4922 64.332 17.4141 64.7383C17.3438 65.1367 17.3086 65.6133 17.3086 66.168Z" fill="#33B9DC"/>
<path d="M25.6406 67.1641V66.168C25.6406 65.168 25.7617 64.2891 26.0039 63.5312C26.2539 62.7734 26.6055 62.1406 27.0586 61.6328C27.5117 61.125 28.0547 60.7422 28.6875 60.4844C29.3281 60.2188 30.0391 60.0859 30.8203 60.0859C31.6172 60.0859 32.332 60.2188 32.9648 60.4844C33.6055 60.7422 34.1523 61.125 34.6055 61.6328C35.0586 62.1406 35.4062 62.7734 35.6484 63.5312C35.8984 64.2891 36.0234 65.168 36.0234 66.168V67.1641C36.0234 68.1562 35.8984 69.0312 35.6484 69.7891C35.4062 70.5469 35.0586 71.1836 34.6055 71.6992C34.1523 72.207 33.6055 72.5898 32.9648 72.8477C32.332 73.1055 31.625 73.2344 30.8438 73.2344C30.0547 73.2344 29.3398 73.1055 28.6992 72.8477C28.0664 72.5898 27.5195 72.207 27.0586 71.6992C26.6055 71.1836 26.2539 70.5469 26.0039 69.7891C25.7617 69.0312 25.6406 68.1562 25.6406 67.1641ZM29.2148 66.168V67.1641C29.2148 67.7266 29.25 68.2109 29.3203 68.6172C29.3984 69.0234 29.5078 69.3555 29.6484 69.6133C29.7891 69.8711 29.957 70.0586 30.1523 70.1758C30.3555 70.293 30.5859 70.3516 30.8438 70.3516C31.1406 70.3516 31.3906 70.293 31.5938 70.1758C31.8047 70.0586 31.9727 69.8711 32.0977 69.6133C32.2227 69.3555 32.3125 69.0234 32.3672 68.6172C32.4297 68.2109 32.4609 67.7266 32.4609 67.1641V66.168C32.4609 65.6133 32.4219 65.1367 32.3438 64.7383C32.2734 64.332 32.168 64 32.0273 63.7422C31.8945 63.4844 31.7227 63.293 31.5117 63.168C31.3086 63.043 31.0781 62.9805 30.8203 62.9805C30.5703 62.9805 30.3438 63.043 30.1406 63.168C29.9453 63.293 29.7773 63.4844 29.6367 63.7422C29.5039 64 29.3984 64.332 29.3203 64.7383C29.25 65.1367 29.2148 65.6133 29.2148 66.168Z" fill="#33B9DC"/>
<path d="M41.5195 62.9805V73H37.957V60.3203H41.2969L41.5195 62.9805ZM41.0625 66.2266L40.1719 66.25C40.1562 65.3594 40.2344 64.5391 40.4062 63.7891C40.5781 63.0391 40.8359 62.3867 41.1797 61.832C41.5312 61.2773 41.9688 60.8477 42.4922 60.543C43.0156 60.2383 43.6289 60.0859 44.332 60.0859C44.7852 60.0859 45.2031 60.1719 45.5859 60.3438C45.9688 60.5078 46.2969 60.7695 46.5703 61.1289C46.8516 61.4805 47.0664 61.9414 47.2148 62.5117C47.3711 63.0742 47.4492 63.75 47.4492 64.5391V73H43.8867V64.9961C43.8867 64.4414 43.8398 64.0234 43.7461 63.7422C43.6602 63.4531 43.5312 63.2539 43.3594 63.1445C43.1875 63.0352 42.9688 62.9805 42.7031 62.9805C42.4453 62.9805 42.2109 63.0625 42 63.2266C41.7891 63.3906 41.6133 63.6211 41.4727 63.918C41.332 64.207 41.2266 64.5508 41.1562 64.9492C41.0859 65.3398 41.0547 65.7656 41.0625 66.2266ZM47.0742 66.0625L45.9609 66.1562C45.9453 65.2891 46.0156 64.4883 46.1719 63.7539C46.3359 63.0195 46.5859 62.3789 46.9219 61.832C47.2656 61.2773 47.6914 60.8477 48.1992 60.543C48.7148 60.2383 49.3203 60.0859 50.0156 60.0859C50.5156 60.0859 50.9688 60.1719 51.375 60.3438C51.7891 60.5156 52.1445 60.793 52.4414 61.1758C52.7383 61.5508 52.9688 62.0508 53.1328 62.6758C53.2969 63.3008 53.3789 64.0664 53.3789 64.9727V73H49.8047V64.9727C49.8047 64.4258 49.7578 64.0117 49.6641 63.7305C49.5781 63.4414 49.4453 63.2461 49.2656 63.1445C49.0938 63.0352 48.8867 62.9805 48.6445 62.9805C48.3711 62.9805 48.1367 63.0586 47.9414 63.2148C47.7539 63.3711 47.5938 63.5898 47.4609 63.8711C47.3281 64.1523 47.2305 64.4805 47.168 64.8555C47.1055 65.2227 47.0742 65.625 47.0742 66.0625Z" fill="#33B9DC"/>
<path d="M58.7344 55.9375L61.125 63.4844L63.5156 55.9375H67.5352L63.0117 66.8359V73H59.25V66.8359L54.7266 55.9375H58.7344Z" fill="#33B9DC"/>
<path d="M78.9141 69.9883V73H71.4727V69.9883H78.9141ZM72.7031 55.9375V73H68.9766V55.9375H72.7031ZM77.9297 62.7812V65.6875H71.4727V62.7812H77.9297ZM78.9141 55.9375V58.9609H71.4727V55.9375H78.9141Z" fill="#33B9DC"/>
<path d="M87.0352 59.2539L83.6133 73H79.6406L84.9492 55.9375H87.4219L87.0352 59.2539ZM89.7305 73L86.2969 59.2539L85.8516 55.9375H88.3711L93.7031 73H89.7305ZM89.8594 66.6367V69.6484H82.3008V66.6367H89.8594Z" fill="#33B9DC"/>
<path d="M104.695 62.7812V65.7812H97.7344V62.7812H104.695ZM98.8828 55.9375V73H95.1562V55.9375H98.8828ZM107.297 55.9375V73H103.594V55.9375H107.297Z" fill="#33B9DC"/>
<path fill-rule="evenodd" clip-rule="evenodd" d="M22.5352 45C34.981 45 45.0703 34.9264 45.0703 22.5C45.0703 10.0736 34.981 0 22.5352 0C10.0894 0 0 10.0736 0 22.5C0 34.9264 10.0894 45 22.5352 45ZM22.5352 41.1214C12.2348 41.1214 3.88469 32.7843 3.88469 22.5C3.88469 12.2157 12.2348 3.87861 22.5352 3.87861C32.8356 3.87861 41.1856 12.2157 41.1856 22.5C41.1856 32.7843 32.8356 41.1214 22.5352 41.1214Z" fill="#33B9DC"/>
<path d="M9.01416 12.0024H14.2844L18.669 24.8907L23.0536 12.0024H28.3238L24.7098 21.7922C24.6187 21.7871 24.5274 21.7845 24.436 21.7845C22.2672 21.7845 20.1593 23.2346 20.1593 25.4191C20.1593 26.272 20.4965 27.025 21.0232 27.6162C20.4256 28.2199 20.0257 29.0063 19.9893 29.9063H15.6234L9.01416 12.0024Z" fill="#33B9DC"/>
<path fill-rule="evenodd" clip-rule="evenodd" d="M20.9369 25.4191C20.9369 23.8636 22.4919 22.6016 24.4145 22.5922L24.436 22.5922C26.3685 22.5922 27.935 23.8578 27.935 25.4191C27.935 26.3226 27.4104 27.127 26.5939 27.6446C27.5114 28.1829 28.1078 29.0558 28.1078 30.0409C28.1078 31.6765 26.4638 33.0024 24.436 33.0024C22.4081 33.0024 20.7641 31.6765 20.7641 30.0409C20.7641 29.9958 20.7654 29.9509 20.7679 29.9063C20.8048 29.2406 21.1141 28.6321 21.6082 28.1516C21.8043 27.961 22.0293 27.7905 22.278 27.6446C22.0342 27.4901 21.8165 27.31 21.631 27.1094C21.1951 26.6379 20.9369 26.0529 20.9369 25.4191ZM24.436 26.5409C25.0323 26.5409 25.516 26.1793 25.516 25.7332C25.516 25.2871 25.0323 24.9255 24.436 24.9255C23.8395 24.9255 23.356 25.2871 23.356 25.7332C23.356 26.1793 23.8395 26.5409 24.436 26.5409ZM24.4792 30.6691C25.1472 30.6691 25.6888 30.2673 25.6888 29.7717C25.6888 29.276 25.1472 28.8742 24.4792 28.8742C23.8112 28.8742 23.2696 29.276 23.2696 29.7717C23.2696 30.2673 23.8112 30.6691 24.4792 30.6691Z" fill="#33B9DC"/>
<path fill-rule="evenodd" clip-rule="evenodd" d="M35.8836 25.4191C35.8836 26.3226 35.3589 27.127 34.5424 27.6446C35.4599 28.1829 36.0563 29.0558 36.0563 30.0409C36.0563 31.6765 34.4124 33.0024 32.3845 33.0024C30.3565 33.0024 28.7126 31.6765 28.7126 30.0409C28.7126 29.0558 29.309 28.1829 30.2264 27.6446C29.4099 27.127 28.8854 26.3226 28.8854 25.4191C28.8854 23.8578 30.452 22.5922 32.3845 22.5922C34.3169 22.5922 35.8836 23.8578 35.8836 25.4191ZM33.4644 25.7332C33.4644 26.1793 32.9809 26.5409 32.3845 26.5409C31.788 26.5409 31.3045 26.1793 31.3045 25.7332C31.3045 25.2871 31.788 24.9255 32.3845 24.9255C32.9809 24.9255 33.4644 25.2871 33.4644 25.7332ZM33.6372 29.7717C33.6372 30.2673 33.0957 30.6691 32.4277 30.6691C31.7596 30.6691 31.2181 30.2673 31.2181 29.7717C31.2181 29.276 31.7596 28.8742 32.4277 28.8742C33.0957 28.8742 33.6372 29.276 33.6372 29.7717Z" fill="#33B9DC"/>
</svg>
