<svg width="116" height="31" viewBox="0 0 116 31" fill="none" xmlns="http://www.w3.org/2000/svg">
<path d="M47.0977 15.1641H44.7539L44.7461 13.4375H46.6914C47.0039 13.4375 47.2565 13.388 47.4492 13.2891C47.6419 13.1849 47.7799 13.0339 47.8633 12.8359C47.9518 12.638 47.9961 12.3906 47.9961 12.0938C47.9961 11.7604 47.9518 11.4922 47.8633 11.2891C47.7799 11.0859 47.6445 10.9375 47.457 10.8438C47.2695 10.75 47.0247 10.7031 46.7227 10.7031H45.6445V20.0625H43.1602V8.6875H46.7227C47.3112 8.6875 47.8372 8.75 48.3008 8.875C48.7643 9 49.1576 9.19271 49.4805 9.45312C49.8034 9.71354 50.0508 10.0391 50.2227 10.4297C50.3945 10.8203 50.4805 11.2812 50.4805 11.8125C50.4805 12.276 50.3893 12.7109 50.207 13.1172C50.0299 13.5182 49.7383 13.8438 49.332 14.0938C48.931 14.3438 48.3893 14.4792 47.707 14.5L47.0977 15.1641ZM47.0117 20.0625H44.0977L45.0117 18.0547H47.0117C47.2982 18.0547 47.5247 17.9948 47.6914 17.875C47.8633 17.75 47.9857 17.5833 48.0586 17.375C48.1315 17.1667 48.168 16.9323 48.168 16.6719C48.168 16.3646 48.1341 16.099 48.0664 15.875C47.9987 15.6458 47.8867 15.4714 47.7305 15.3516C47.5794 15.2266 47.3685 15.1641 47.0977 15.1641H45.1133L45.1289 13.4375H47.4883L48.0742 14.125C48.7201 14.099 49.2305 14.2109 49.6055 14.4609C49.9805 14.7057 50.2461 15.0312 50.4023 15.4375C50.5586 15.8385 50.6367 16.2604 50.6367 16.7031C50.6367 17.4427 50.5013 18.0625 50.2305 18.5625C49.9596 19.0573 49.5534 19.4323 49.0117 19.6875C48.4753 19.9375 47.8086 20.0625 47.0117 20.0625Z" fill="#009EBE"/>
<path d="M52.0133 16.1719V15.5078C52.0133 14.8411 52.094 14.2552 52.2555 13.75C52.4221 13.2448 52.6565 12.8229 52.9586 12.4844C53.2607 12.1458 53.6227 11.8906 54.0445 11.7188C54.4716 11.5417 54.9456 11.4531 55.4664 11.4531C55.9977 11.4531 56.4742 11.5417 56.8961 11.7188C57.3232 11.8906 57.6878 12.1458 57.9898 12.4844C58.2919 12.8229 58.5237 13.2448 58.6852 13.75C58.8518 14.2552 58.9352 14.8411 58.9352 15.5078V16.1719C58.9352 16.8333 58.8518 17.4167 58.6852 17.9219C58.5237 18.4271 58.2919 18.8516 57.9898 19.1953C57.6878 19.5339 57.3232 19.7891 56.8961 19.9609C56.4742 20.1328 56.0029 20.2188 55.482 20.2188C54.956 20.2188 54.4794 20.1328 54.0523 19.9609C53.6305 19.7891 53.2659 19.5339 52.9586 19.1953C52.6565 18.8516 52.4221 18.4271 52.2555 17.9219C52.094 17.4167 52.0133 16.8333 52.0133 16.1719ZM54.3961 15.5078V16.1719C54.3961 16.5469 54.4195 16.8698 54.4664 17.1406C54.5185 17.4115 54.5914 17.6328 54.6852 17.8047C54.7789 17.9766 54.8909 18.1016 55.0211 18.1797C55.1565 18.2578 55.3102 18.2969 55.482 18.2969C55.6799 18.2969 55.8466 18.2578 55.982 18.1797C56.1227 18.1016 56.2346 17.9766 56.318 17.8047C56.4013 17.6328 56.4612 17.4115 56.4977 17.1406C56.5393 16.8698 56.5602 16.5469 56.5602 16.1719V15.5078C56.5602 15.138 56.5341 14.8203 56.482 14.5547C56.4352 14.2839 56.3648 14.0625 56.2711 13.8906C56.1826 13.7188 56.068 13.5911 55.9273 13.5078C55.7919 13.4245 55.6383 13.3828 55.4664 13.3828C55.2997 13.3828 55.1487 13.4245 55.0133 13.5078C54.8831 13.5911 54.7711 13.7188 54.6773 13.8906C54.5888 14.0625 54.5185 14.2839 54.4664 14.5547C54.4195 14.8203 54.3961 15.138 54.3961 15.5078Z" fill="#009EBE"/>
<path d="M60.1008 16.1719V15.5078C60.1008 14.8411 60.1815 14.2552 60.343 13.75C60.5096 13.2448 60.744 12.8229 61.0461 12.4844C61.3482 12.1458 61.7102 11.8906 62.132 11.7188C62.5591 11.5417 63.0331 11.4531 63.5539 11.4531C64.0852 11.4531 64.5617 11.5417 64.9836 11.7188C65.4107 11.8906 65.7753 12.1458 66.0773 12.4844C66.3794 12.8229 66.6112 13.2448 66.7727 13.75C66.9393 14.2552 67.0227 14.8411 67.0227 15.5078V16.1719C67.0227 16.8333 66.9393 17.4167 66.7727 17.9219C66.6112 18.4271 66.3794 18.8516 66.0773 19.1953C65.7753 19.5339 65.4107 19.7891 64.9836 19.9609C64.5617 20.1328 64.0904 20.2188 63.5695 20.2188C63.0435 20.2188 62.5669 20.1328 62.1398 19.9609C61.718 19.7891 61.3534 19.5339 61.0461 19.1953C60.744 18.8516 60.5096 18.4271 60.343 17.9219C60.1815 17.4167 60.1008 16.8333 60.1008 16.1719ZM62.4836 15.5078V16.1719C62.4836 16.5469 62.507 16.8698 62.5539 17.1406C62.606 17.4115 62.6789 17.6328 62.7727 17.8047C62.8664 17.9766 62.9784 18.1016 63.1086 18.1797C63.244 18.2578 63.3977 18.2969 63.5695 18.2969C63.7674 18.2969 63.9341 18.2578 64.0695 18.1797C64.2102 18.1016 64.3221 17.9766 64.4055 17.8047C64.4888 17.6328 64.5487 17.4115 64.5852 17.1406C64.6268 16.8698 64.6477 16.5469 64.6477 16.1719V15.5078C64.6477 15.138 64.6216 14.8203 64.5695 14.5547C64.5227 14.2839 64.4523 14.0625 64.3586 13.8906C64.2701 13.7188 64.1555 13.5911 64.0148 13.5078C63.8794 13.4245 63.7258 13.3828 63.5539 13.3828C63.3872 13.3828 63.2362 13.4245 63.1008 13.5078C62.9706 13.5911 62.8586 13.7188 62.7648 13.8906C62.6763 14.0625 62.606 14.2839 62.5539 14.5547C62.507 14.8203 62.4836 15.138 62.4836 15.5078Z" fill="#009EBE"/>
<path d="M70.8367 13.3828V20.0625H68.4617V11.6094H70.6883L70.8367 13.3828ZM70.532 15.5469L69.9383 15.5625C69.9279 14.9688 69.9799 14.4219 70.0945 13.9219C70.2091 13.4219 70.381 12.987 70.6102 12.6172C70.8445 12.2474 71.1362 11.9609 71.4852 11.7578C71.8341 11.5547 72.243 11.4531 72.7117 11.4531C73.0138 11.4531 73.2924 11.5104 73.5477 11.625C73.8029 11.7344 74.0216 11.9089 74.2039 12.1484C74.3914 12.3828 74.5346 12.6901 74.6336 13.0703C74.7378 13.4453 74.7898 13.8958 74.7898 14.4219V20.0625H72.4148V14.7266C72.4148 14.3568 72.3836 14.0781 72.3211 13.8906C72.2638 13.6979 72.1779 13.5651 72.0633 13.4922C71.9487 13.4193 71.8029 13.3828 71.6258 13.3828C71.4539 13.3828 71.2977 13.4375 71.157 13.5469C71.0164 13.6562 70.8992 13.8099 70.8055 14.0078C70.7117 14.2005 70.6414 14.4297 70.5945 14.6953C70.5477 14.9557 70.5268 15.2396 70.532 15.5469ZM74.5398 15.4375L73.7977 15.5C73.7872 14.9219 73.8341 14.388 73.9383 13.8984C74.0477 13.4089 74.2143 12.9818 74.4383 12.6172C74.6674 12.2474 74.9513 11.9609 75.2898 11.7578C75.6336 11.5547 76.0372 11.4531 76.5008 11.4531C76.8341 11.4531 77.1362 11.5104 77.407 11.625C77.6831 11.7396 77.9201 11.9245 78.118 12.1797C78.3159 12.4297 78.4695 12.763 78.5789 13.1797C78.6883 13.5964 78.743 14.1068 78.743 14.7109V20.0625H76.3602V14.7109C76.3602 14.3464 76.3289 14.0703 76.2664 13.8828C76.2091 13.6901 76.1206 13.5599 76.0008 13.4922C75.8862 13.4193 75.7482 13.3828 75.5867 13.3828C75.4044 13.3828 75.2482 13.4349 75.118 13.5391C74.993 13.6432 74.8862 13.7891 74.7977 13.9766C74.7091 14.1641 74.644 14.3828 74.6023 14.6328C74.5607 14.8776 74.5398 15.1458 74.5398 15.4375Z" fill="#009EBE"/>
<path d="M82.4633 8.6875L84.057 13.7188L85.6508 8.6875H88.3305L85.3148 15.9531V20.0625H82.807V15.9531L79.7914 8.6875H82.4633Z" fill="#009EBE"/>
<path d="M96.0664 18.0547V20.0625H91.1055V18.0547H96.0664ZM91.9258 8.6875V20.0625H89.4414V8.6875H91.9258ZM95.4102 13.25V15.1875H91.1055V13.25H95.4102ZM96.0664 8.6875V10.7031H91.1055V8.6875H96.0664Z" fill="#009EBE"/>
<path d="M101.63 10.8984L99.3492 20.0625H96.7008L100.24 8.6875H101.888L101.63 10.8984ZM103.427 20.0625L101.138 10.8984L100.841 8.6875H102.521L106.076 20.0625H103.427ZM103.513 15.8203V17.8281H98.4742V15.8203H103.513Z" fill="#009EBE"/>
<path d="M113.554 13.25V15.25H108.913V13.25H113.554ZM109.679 8.6875V20.0625H107.195V8.6875H109.679ZM115.288 8.6875V20.0625H112.82V8.6875H115.288Z" fill="#009EBE"/>
<path fill-rule="evenodd" clip-rule="evenodd" d="M15.9272 30.0624C24.7236 30.0624 31.8545 23.3327 31.8545 15.0312C31.8545 6.7297 24.7236 0 15.9272 0C7.13088 0 0 6.7297 0 15.0312C0 23.3327 7.13088 30.0624 15.9272 30.0624ZM15.9272 27.4713C8.64719 27.4713 2.74559 21.9017 2.74559 15.0312C2.74559 8.16073 8.64719 2.59112 15.9272 2.59112C23.2073 2.59112 29.1089 8.16073 29.1089 15.0312C29.1089 21.9017 23.2073 27.4713 15.9272 27.4713Z" fill="#009EBE"/>
<path d="M6.37109 8.01855H10.096L13.1949 16.6286L16.2938 8.01855H20.0186L17.4644 14.5586C17.4 14.5552 17.3355 14.5535 17.2708 14.5535C15.738 14.5535 14.2482 15.5222 14.2482 16.9816C14.2482 17.5514 14.4865 18.0544 14.8587 18.4493C14.4364 18.8527 14.1538 19.378 14.128 19.9793H11.0424L6.37109 8.01855Z" fill="#009EBE"/>
<path fill-rule="evenodd" clip-rule="evenodd" d="M14.7978 16.9816C14.7978 15.9425 15.8968 15.0993 17.2556 15.0931L17.2708 15.0931C18.6367 15.0931 19.7438 15.9386 19.7438 16.9816C19.7438 17.5852 19.3731 18.1226 18.796 18.4683C19.4445 18.828 19.8659 19.4111 19.8659 20.0692C19.8659 21.1619 18.704 22.0477 17.2708 22.0477C15.8375 22.0477 14.6756 21.1619 14.6756 20.0692C14.6756 20.0391 14.6765 20.0091 14.6783 19.9793C14.7044 19.5346 14.923 19.1281 15.2722 18.807C15.4108 18.6797 15.5699 18.5658 15.7456 18.4683C15.5733 18.3651 15.4194 18.2448 15.2883 18.1108C14.9802 17.7959 14.7978 17.405 14.7978 16.9816ZM17.2708 17.731C17.6923 17.731 18.0341 17.4894 18.0341 17.1914C18.0341 16.8934 17.6923 16.6519 17.2708 16.6519C16.8493 16.6519 16.5075 16.8934 16.5075 17.1914C16.5075 17.4894 16.8493 17.731 17.2708 17.731ZM17.3014 20.4889C17.7735 20.4889 18.1563 20.2205 18.1563 19.8894C18.1563 19.5582 17.7735 19.2898 17.3014 19.2898C16.8292 19.2898 16.4465 19.5582 16.4465 19.8894C16.4465 20.2205 16.8292 20.4889 17.3014 20.4889Z" fill="#009EBE"/>
<path fill-rule="evenodd" clip-rule="evenodd" d="M25.3617 16.9816C25.3617 17.5852 24.9908 18.1226 24.4138 18.4683C25.0622 18.828 25.4838 19.4111 25.4838 20.0692C25.4838 21.1619 24.3219 22.0477 22.8886 22.0477C21.4553 22.0477 20.2934 21.1619 20.2934 20.0692C20.2934 19.4111 20.715 18.828 21.3633 18.4683C20.7863 18.1226 20.4155 17.5852 20.4155 16.9816C20.4155 15.9386 21.5228 15.0931 22.8886 15.0931C24.2544 15.0931 25.3617 15.9386 25.3617 16.9816ZM23.6519 17.1914C23.6519 17.4894 23.3102 17.731 22.8886 17.731C22.467 17.731 22.1253 17.4894 22.1253 17.1914C22.1253 16.8934 22.467 16.6519 22.8886 16.6519C23.3102 16.6519 23.6519 16.8934 23.6519 17.1914ZM23.774 19.8894C23.774 20.2205 23.3912 20.4889 22.9191 20.4889C22.447 20.4889 22.0642 20.2205 22.0642 19.8894C22.0642 19.5582 22.447 19.2898 22.9191 19.2898C23.3912 19.2898 23.774 19.5582 23.774 19.8894Z" fill="#009EBE"/>
</svg>
