<svg width="90" height="12" viewBox="0 0 90 12" fill="none" xmlns="http://www.w3.org/2000/svg">
<path d="M7.09687 4.21938L4.18687 7.12938L1.27687 4.21938C0.984375 3.92687 0.511875 3.92687 0.219375 4.21938C-0.073125 4.51188 -0.073125 4.98437 0.219375 5.27688L3.66187 8.71938C3.95437 9.01188 4.42687 9.01188 4.71937 8.71938L8.16187 5.27688C8.45437 4.98437 8.45437 4.51188 8.16187 4.21938C7.86937 3.93437 7.38937 3.92687 7.09687 4.21938V4.21938Z" fill="#14B8A6"/>
<path d="M80.375 0C79.6187 0 79.0069 0.520684 79.0069 1.15708L79 10.4137C79 11.0501 79.6119 11.5708 80.3681 11.5708H88.625C89.3813 11.5708 90 11.0501 90 10.4137V3.95141C90 3.64479 89.8556 3.34973 89.5944 3.13567L86.2737 0.341337C86.0194 0.121493 85.6688 0 85.3044 0H80.375ZM85.1875 3.47123V0.867807L88.9688 4.04976H85.875C85.4969 4.04976 85.1875 3.78942 85.1875 3.47123Z" fill="#14B8A6"/>
<path d="M23.0833 7.5C23.6792 7.5 24.1667 7.0125 24.1667 6.41667C24.1667 5.82083 23.6792 5.33333 23.0833 5.33333C22.4875 5.33333 22 5.82083 22 6.41667C22 7.0125 22.4875 7.5 23.0833 7.5ZM23.0833 11.8333C23.6792 11.8333 24.1667 11.3458 24.1667 10.75C24.1667 10.1542 23.6792 9.66667 23.0833 9.66667C22.4875 9.66667 22 10.1542 22 10.75C22 11.3458 22.4875 11.8333 23.0833 11.8333ZM23.0833 3.16667C23.6792 3.16667 24.1667 2.67917 24.1667 2.08333C24.1667 1.4875 23.6792 1 23.0833 1C22.4875 1 22 1.4875 22 2.08333C22 2.67917 22.4875 3.16667 23.0833 3.16667ZM27.4167 7.5H40.4167C41.0125 7.5 41.5 7.0125 41.5 6.41667C41.5 5.82083 41.0125 5.33333 40.4167 5.33333H27.4167C26.8208 5.33333 26.3333 5.82083 26.3333 6.41667C26.3333 7.0125 26.8208 7.5 27.4167 7.5ZM27.4167 11.8333H40.4167C41.0125 11.8333 41.5 11.3458 41.5 10.75C41.5 10.1542 41.0125 9.66667 40.4167 9.66667H27.4167C26.8208 9.66667 26.3333 10.1542 26.3333 10.75C26.3333 11.3458 26.8208 11.8333 27.4167 11.8333ZM26.3333 2.08333C26.3333 2.67917 26.8208 3.16667 27.4167 3.16667H40.4167C41.0125 3.16667 41.5 2.67917 41.5 2.08333C41.5 1.4875 41.0125 1 40.4167 1H27.4167C26.8208 1 26.3333 1.4875 26.3333 2.08333ZM23.0833 7.5C23.6792 7.5 24.1667 7.0125 24.1667 6.41667C24.1667 5.82083 23.6792 5.33333 23.0833 5.33333C22.4875 5.33333 22 5.82083 22 6.41667C22 7.0125 22.4875 7.5 23.0833 7.5ZM23.0833 11.8333C23.6792 11.8333 24.1667 11.3458 24.1667 10.75C24.1667 10.1542 23.6792 9.66667 23.0833 9.66667C22.4875 9.66667 22 10.1542 22 10.75C22 11.3458 22.4875 11.8333 23.0833 11.8333ZM23.0833 3.16667C23.6792 3.16667 24.1667 2.67917 24.1667 2.08333C24.1667 1.4875 23.6792 1 23.0833 1C22.4875 1 22 1.4875 22 2.08333C22 2.67917 22.4875 3.16667 23.0833 3.16667ZM27.4167 7.5H40.4167C41.0125 7.5 41.5 7.0125 41.5 6.41667C41.5 5.82083 41.0125 5.33333 40.4167 5.33333H27.4167C26.8208 5.33333 26.3333 5.82083 26.3333 6.41667C26.3333 7.0125 26.8208 7.5 27.4167 7.5ZM27.4167 11.8333H40.4167C41.0125 11.8333 41.5 11.3458 41.5 10.75C41.5 10.1542 41.0125 9.66667 40.4167 9.66667H27.4167C26.8208 9.66667 26.3333 10.1542 26.3333 10.75C26.3333 11.3458 26.8208 11.8333 27.4167 11.8333ZM26.3333 2.08333C26.3333 2.67917 26.8208 3.16667 27.4167 3.16667H40.4167C41.0125 3.16667 41.5 2.67917 41.5 2.08333C41.5 1.4875 41.0125 1 40.4167 1H27.4167C26.8208 1 26.3333 1.4875 26.3333 2.08333Z" fill="white"/>
<path d="M56.375 0C55.6187 0 55.0069 0.520684 55.0069 1.15708L55 10.4137C55 11.0501 55.6119 11.5708 56.3681 11.5708H64.625C65.3813 11.5708 66 11.0501 66 10.4137V3.95141C66 3.64479 65.8556 3.34973 65.5944 3.13567L62.2737 0.341337C62.0194 0.121493 61.6688 0 61.3044 0H56.375ZM61.1875 3.47123V0.867807L64.9688 4.04976H61.875C61.4969 4.04976 61.1875 3.78942 61.1875 3.47123Z" fill="#1D333B"/>
</svg>
