<svg width="139" height="147" viewBox="0 0 139 147" fill="none" xmlns="http://www.w3.org/2000/svg">
<path opacity="0.3" fill-rule="evenodd" clip-rule="evenodd" d="M85.0076 1.02984C74.3162 4.83894 69.3926 12.9976 73.2299 20.5466L74.4547 22.9565L73.1334 28.3092C72.0282 32.7863 71.9196 33.7915 72.4698 34.4515C72.8313 34.8859 73.441 35.241 73.8246 35.241C74.2082 35.241 77.0123 33.9967 80.0565 32.4765C85.4147 29.8001 85.6493 29.7323 87.4247 30.356C89.9698 31.2501 101.517 31.2162 104.762 30.3047C111.244 28.4846 117.487 23.867 119.295 19.5558C120.347 17.0483 120.206 13.033 118.976 10.503C116.753 5.92982 110.478 1.5424 104.32 0.255764C101.347 -0.365388 100.011 0.134722 100.011 1.86717C100.011 3.11645 100.842 3.63649 104.43 4.63073C106.173 5.1139 108.895 6.34325 110.477 7.3624C119.341 13.0683 116.973 21.5552 105.368 25.6762C102.267 26.7775 100.955 26.9538 96.0102 26.9339C92.1863 26.919 89.4401 26.647 87.8153 26.1235L85.3722 25.3355L81.4503 27.2995C79.2928 28.38 77.4334 29.2636 77.3179 29.2636C77.2023 29.2636 77.5399 27.585 78.0675 25.5327L79.0273 21.8018L77.6769 19.77C73.7375 13.8409 78.085 7.40075 87.9393 4.56996C91.9927 3.40586 93.125 2.45694 92.2063 0.995468C91.3941 -0.295651 88.693 -0.2827 85.0076 1.02984ZM91.6091 10.9329C90.7184 11.8201 90.877 12.8706 92.0963 14.1637L93.184 15.3163L92.0963 16.469C90.877 17.7621 90.7184 18.8126 91.6091 19.6998C92.4998 20.5869 93.5546 20.429 94.8529 19.2146L96.0102 18.1312L97.1674 19.2146C98.4657 20.429 99.5205 20.5869 100.411 19.6998C101.302 18.8126 101.143 17.7621 99.9241 16.469L98.8363 15.3163L99.9241 14.1637C101.143 12.8706 101.302 11.8201 100.411 10.9329C99.5205 10.0458 98.4657 10.2037 97.1674 11.4181L96.0102 12.5015L94.8529 11.4181C93.5546 10.2037 92.4998 10.0458 91.6091 10.9329ZM29.4564 32.7121C28.2421 33.9215 27.9956 34.575 28.0001 36.5725C28.0166 43.5436 31.976 97.6297 32.5181 98.2797C33.0312 98.8954 38.2434 99 68.4913 99H103.864L105.517 97.8792C108.126 96.1104 108.842 94.7032 110.686 87.7087C112.238 81.8199 112.341 81.0434 111.686 80.1124C110.84 78.9089 109.872 78.7889 108.893 79.7647C108.512 80.1438 107.455 83.2874 106.544 86.7508C105.231 91.7414 104.628 93.2517 103.632 94.0313C102.411 94.9882 101.48 95.0151 69.6866 95.0151C48.9799 95.0151 36.9966 94.8387 36.9966 94.5334C36.9966 94.2689 39.1346 86.3329 41.7477 76.8985C44.3608 67.4642 46.4988 59.6114 46.4988 59.448C46.4988 59.2841 61.6643 59.1506 80.1995 59.1506H113.9L112.46 64.4969C111.668 67.4373 111.143 70.2278 111.293 70.698C111.718 72.0334 113.491 72.3562 114.501 71.2823C115.802 69.8985 118.89 57.3639 118.199 56.272C117.695 55.4755 115.041 55.4058 80.8912 55.2872C50.1206 55.1801 44.0327 55.2713 43.5531 55.8471C43.2381 56.2252 41.6267 61.438 39.9723 67.4313C38.3179 73.4247 36.593 79.561 36.1389 81.0678L35.3132 83.8074L33.7034 59.8978C32.8177 46.7475 32.197 35.8198 32.3241 35.6146C32.4506 35.4094 36.2344 35.241 40.732 35.241H48.9099L52.2196 39.226L55.5299 43.2109H77.7485H99.9671L100.114 46.7699C100.227 49.5116 100.462 50.455 101.136 50.8769C101.773 51.2754 102.25 51.2749 102.887 50.8764C103.604 50.4266 103.788 49.4548 103.905 45.4728C103.999 42.3222 103.846 40.3741 103.469 39.9223C102.988 39.3445 99.0248 39.226 80.2385 39.226H57.5873L54.9882 35.9723C53.5584 34.1825 51.7495 32.3893 50.9688 31.9873C49.8696 31.421 47.4455 31.2561 40.2339 31.2561H30.9182L29.4564 32.7121ZM60.6225 71.6828C59.7959 72.5061 59.8364 73.8351 60.7101 74.5574C61.8183 75.4734 67.0275 75.0356 67.6992 73.9696C68.0983 73.3365 68.0983 72.8593 67.6992 72.2262C67.011 71.1348 61.5908 70.7184 60.6225 71.6828ZM88.629 71.6828C87.8023 72.5061 87.8428 73.8351 88.7165 74.5574C89.8247 75.4734 95.0339 75.0356 95.7056 73.9696C96.1047 73.3365 96.1047 72.8593 95.7056 72.2262C95.0174 71.1348 89.5972 70.7184 88.629 71.6828ZM76.0981 81.5614C72.7228 82.3554 70.9814 85.4064 73.1394 86.7453C73.8196 87.1672 74.3782 87.0925 75.5555 86.4225C76.3977 85.9429 77.5004 85.5508 78.006 85.5508C78.5116 85.5508 79.6144 85.9429 80.4566 86.4225C82.2105 87.4213 83.6503 86.9082 83.9084 85.1927C84.0839 84.0271 81.4373 81.5659 80.009 81.5659C79.5024 81.5659 78.7882 81.4772 78.4221 81.3686C78.0555 81.2606 77.0098 81.3472 76.0981 81.5614Z" fill="#009EBE"/>
<path opacity="0.3" d="M10.1797 128.625V140H8.21875L3.11719 131.852V140H1.15625V128.625H3.11719L8.23438 136.789V128.625H10.1797ZM12.1187 135.867V135.688C12.1187 135.078 12.2073 134.513 12.3844 133.992C12.5615 133.466 12.8167 133.01 13.15 132.625C13.4885 132.234 13.9 131.932 14.3844 131.719C14.874 131.5 15.426 131.391 16.0406 131.391C16.6604 131.391 17.2125 131.5 17.6969 131.719C18.1865 131.932 18.6005 132.234 18.9391 132.625C19.2776 133.01 19.5354 133.466 19.7125 133.992C19.8896 134.513 19.9781 135.078 19.9781 135.688V135.867C19.9781 136.477 19.8896 137.042 19.7125 137.562C19.5354 138.083 19.2776 138.539 18.9391 138.93C18.6005 139.315 18.1891 139.617 17.7047 139.836C17.2203 140.049 16.6708 140.156 16.0562 140.156C15.4365 140.156 14.8818 140.049 14.3922 139.836C13.9078 139.617 13.4964 139.315 13.1578 138.93C12.8193 138.539 12.5615 138.083 12.3844 137.562C12.2073 137.042 12.1187 136.477 12.1187 135.867ZM14.0016 135.688V135.867C14.0016 136.247 14.0406 136.607 14.1187 136.945C14.1969 137.284 14.3193 137.581 14.4859 137.836C14.6526 138.091 14.8661 138.292 15.1266 138.438C15.387 138.583 15.6969 138.656 16.0562 138.656C16.4052 138.656 16.7073 138.583 16.9625 138.438C17.2229 138.292 17.4365 138.091 17.6031 137.836C17.7698 137.581 17.8922 137.284 17.9703 136.945C18.0536 136.607 18.0953 136.247 18.0953 135.867V135.688C18.0953 135.312 18.0536 134.958 17.9703 134.625C17.8922 134.286 17.7672 133.987 17.5953 133.727C17.4286 133.466 17.2151 133.263 16.9547 133.117C16.6995 132.966 16.3948 132.891 16.0406 132.891C15.6865 132.891 15.3792 132.966 15.1187 133.117C14.8635 133.263 14.6526 133.466 14.4859 133.727C14.3193 133.987 14.1969 134.286 14.1187 134.625C14.0406 134.958 14.0016 135.312 14.0016 135.688ZM29.3328 140H26.9031L26.9188 138.445H29.3328C30.0359 138.445 30.6245 138.292 31.0984 137.984C31.5776 137.677 31.937 137.237 32.1766 136.664C32.4214 136.091 32.5438 135.409 32.5438 134.617V134C32.5438 133.385 32.4734 132.841 32.3328 132.367C32.1974 131.893 31.9943 131.495 31.7234 131.172C31.4578 130.849 31.1297 130.604 30.7391 130.438C30.3536 130.271 29.9083 130.188 29.4031 130.188H26.8563V128.625H29.4031C30.1583 128.625 30.8484 128.753 31.4734 129.008C32.0984 129.258 32.6375 129.62 33.0906 130.094C33.549 130.568 33.9005 131.135 34.1453 131.797C34.3901 132.458 34.5125 133.198 34.5125 134.016V134.617C34.5125 135.435 34.3901 136.174 34.1453 136.836C33.9005 137.497 33.549 138.065 33.0906 138.539C32.6323 139.008 32.0854 139.37 31.45 139.625C30.8198 139.875 30.1141 140 29.3328 140ZM27.9891 128.625V140H26.0281V128.625H27.9891ZM41.2094 138.305V134.273C41.2094 133.971 41.1547 133.711 41.0453 133.492C40.9359 133.273 40.7693 133.104 40.5453 132.984C40.3266 132.865 40.0505 132.805 39.7172 132.805C39.4099 132.805 39.1443 132.857 38.9203 132.961C38.6964 133.065 38.5219 133.206 38.3969 133.383C38.2719 133.56 38.2094 133.76 38.2094 133.984H36.3344C36.3344 133.651 36.4151 133.328 36.5766 133.016C36.738 132.703 36.9724 132.424 37.2797 132.18C37.587 131.935 37.9542 131.742 38.3812 131.602C38.8083 131.461 39.2875 131.391 39.8187 131.391C40.4542 131.391 41.0167 131.497 41.5062 131.711C42.001 131.924 42.3891 132.247 42.6703 132.68C42.9568 133.107 43.1 133.643 43.1 134.289V138.047C43.1 138.432 43.126 138.779 43.1781 139.086C43.2354 139.388 43.3161 139.651 43.4203 139.875V140H41.4906C41.4021 139.797 41.3318 139.539 41.2797 139.227C41.2328 138.909 41.2094 138.602 41.2094 138.305ZM41.4828 134.859L41.4984 136.023H40.1469C39.7979 136.023 39.4906 136.057 39.225 136.125C38.9594 136.188 38.738 136.281 38.5609 136.406C38.3839 136.531 38.251 136.682 38.1625 136.859C38.074 137.036 38.0297 137.237 38.0297 137.461C38.0297 137.685 38.0818 137.891 38.1859 138.078C38.2901 138.26 38.4411 138.404 38.6391 138.508C38.8422 138.612 39.087 138.664 39.3734 138.664C39.7589 138.664 40.0948 138.586 40.3812 138.43C40.6729 138.268 40.9021 138.073 41.0687 137.844C41.2354 137.609 41.324 137.388 41.3344 137.18L41.9437 138.016C41.8812 138.229 41.7745 138.458 41.6234 138.703C41.4724 138.948 41.2745 139.182 41.0297 139.406C40.7901 139.625 40.501 139.805 40.1625 139.945C39.8292 140.086 39.4437 140.156 39.0062 140.156C38.4542 140.156 37.962 140.047 37.5297 139.828C37.0974 139.604 36.7589 139.305 36.5141 138.93C36.2693 138.549 36.1469 138.12 36.1469 137.641C36.1469 137.193 36.2302 136.797 36.3969 136.453C36.5687 136.104 36.8187 135.812 37.1469 135.578C37.4802 135.344 37.8865 135.167 38.3656 135.047C38.8448 134.922 39.3917 134.859 40.0062 134.859H41.4828ZM49.0938 131.547V132.922H44.3281V131.547H49.0938ZM45.7031 129.477H47.5859V137.664C47.5859 137.924 47.6224 138.125 47.6953 138.266C47.7734 138.401 47.8802 138.492 48.0156 138.539C48.151 138.586 48.3099 138.609 48.4922 138.609C48.6224 138.609 48.7474 138.602 48.8672 138.586C48.987 138.57 49.0833 138.555 49.1562 138.539L49.1641 139.977C49.0078 140.023 48.8255 140.065 48.6172 140.102C48.4141 140.138 48.1797 140.156 47.9141 140.156C47.4818 140.156 47.099 140.081 46.7656 139.93C46.4323 139.773 46.1719 139.521 45.9844 139.172C45.7969 138.823 45.7031 138.359 45.7031 137.781V129.477ZM55.4625 138.305V134.273C55.4625 133.971 55.4078 133.711 55.2984 133.492C55.1891 133.273 55.0224 133.104 54.7984 132.984C54.5797 132.865 54.3036 132.805 53.9703 132.805C53.663 132.805 53.3974 132.857 53.1734 132.961C52.9495 133.065 52.775 133.206 52.65 133.383C52.525 133.56 52.4625 133.76 52.4625 133.984H50.5875C50.5875 133.651 50.6682 133.328 50.8297 133.016C50.9911 132.703 51.2255 132.424 51.5328 132.18C51.8401 131.935 52.2073 131.742 52.6344 131.602C53.0615 131.461 53.5406 131.391 54.0719 131.391C54.7073 131.391 55.2698 131.497 55.7594 131.711C56.2542 131.924 56.6422 132.247 56.9234 132.68C57.2099 133.107 57.3531 133.643 57.3531 134.289V138.047C57.3531 138.432 57.3792 138.779 57.4313 139.086C57.4885 139.388 57.5693 139.651 57.6734 139.875V140H55.7438C55.6552 139.797 55.5849 139.539 55.5328 139.227C55.4859 138.909 55.4625 138.602 55.4625 138.305ZM55.7359 134.859L55.7516 136.023H54.4C54.051 136.023 53.7438 136.057 53.4781 136.125C53.2125 136.188 52.9911 136.281 52.8141 136.406C52.637 136.531 52.5042 136.682 52.4156 136.859C52.3271 137.036 52.2828 137.237 52.2828 137.461C52.2828 137.685 52.3349 137.891 52.4391 138.078C52.5432 138.26 52.6943 138.404 52.8922 138.508C53.0953 138.612 53.3401 138.664 53.6266 138.664C54.012 138.664 54.3479 138.586 54.6344 138.43C54.926 138.268 55.1552 138.073 55.3219 137.844C55.4885 137.609 55.5771 137.388 55.5875 137.18L56.1969 138.016C56.1344 138.229 56.0276 138.458 55.8766 138.703C55.7255 138.948 55.5276 139.182 55.2828 139.406C55.0432 139.625 54.7542 139.805 54.4156 139.945C54.0823 140.086 53.6969 140.156 53.2594 140.156C52.7073 140.156 52.2151 140.047 51.7828 139.828C51.3505 139.604 51.012 139.305 50.7672 138.93C50.5224 138.549 50.4 138.12 50.4 137.641C50.4 137.193 50.4833 136.797 50.65 136.453C50.8219 136.104 51.0719 135.812 51.4 135.578C51.7333 135.344 52.1396 135.167 52.6188 135.047C53.0979 134.922 53.6448 134.859 54.2594 134.859H55.7359ZM67.4813 131.547V132.922H62.7156V131.547H67.4813ZM64.0906 129.477H65.9734V137.664C65.9734 137.924 66.0099 138.125 66.0828 138.266C66.1609 138.401 66.2677 138.492 66.4031 138.539C66.5385 138.586 66.6974 138.609 66.8797 138.609C67.0099 138.609 67.1349 138.602 67.2547 138.586C67.3745 138.57 67.4708 138.555 67.5438 138.539L67.5516 139.977C67.3953 140.023 67.213 140.065 67.0047 140.102C66.8016 140.138 66.5672 140.156 66.3016 140.156C65.8693 140.156 65.4865 140.081 65.1531 139.93C64.8198 139.773 64.5594 139.521 64.3719 139.172C64.1844 138.823 64.0906 138.359 64.0906 137.781V129.477ZM68.5375 135.867V135.688C68.5375 135.078 68.626 134.513 68.8031 133.992C68.9802 133.466 69.2354 133.01 69.5687 132.625C69.9073 132.234 70.3187 131.932 70.8031 131.719C71.2927 131.5 71.8448 131.391 72.4594 131.391C73.0792 131.391 73.6312 131.5 74.1156 131.719C74.6052 131.932 75.0193 132.234 75.3578 132.625C75.6964 133.01 75.9542 133.466 76.1312 133.992C76.3083 134.513 76.3969 135.078 76.3969 135.688V135.867C76.3969 136.477 76.3083 137.042 76.1312 137.562C75.9542 138.083 75.6964 138.539 75.3578 138.93C75.0193 139.315 74.6078 139.617 74.1234 139.836C73.6391 140.049 73.0896 140.156 72.475 140.156C71.8552 140.156 71.3005 140.049 70.8109 139.836C70.3266 139.617 69.9151 139.315 69.5766 138.93C69.238 138.539 68.9802 138.083 68.8031 137.562C68.626 137.042 68.5375 136.477 68.5375 135.867ZM70.4203 135.688V135.867C70.4203 136.247 70.4594 136.607 70.5375 136.945C70.6156 137.284 70.738 137.581 70.9047 137.836C71.0714 138.091 71.2849 138.292 71.5453 138.438C71.8057 138.583 72.1156 138.656 72.475 138.656C72.824 138.656 73.126 138.583 73.3812 138.438C73.6417 138.292 73.8552 138.091 74.0219 137.836C74.1885 137.581 74.3109 137.284 74.3891 136.945C74.4724 136.607 74.5141 136.247 74.5141 135.867V135.688C74.5141 135.312 74.4724 134.958 74.3891 134.625C74.3109 134.286 74.1859 133.987 74.0141 133.727C73.8474 133.466 73.6339 133.263 73.3734 133.117C73.1182 132.966 72.8135 132.891 72.4594 132.891C72.1052 132.891 71.7979 132.966 71.5375 133.117C71.2823 133.263 71.0714 133.466 70.9047 133.727C70.738 133.987 70.6156 134.286 70.5375 134.625C70.4594 134.958 70.4203 135.312 70.4203 135.688ZM85.7516 140H83.3219L83.3375 138.445H85.7516C86.4547 138.445 87.0432 138.292 87.5172 137.984C87.9964 137.677 88.3557 137.237 88.5953 136.664C88.8401 136.091 88.9625 135.409 88.9625 134.617V134C88.9625 133.385 88.8922 132.841 88.7516 132.367C88.6161 131.893 88.413 131.495 88.1422 131.172C87.8766 130.849 87.5484 130.604 87.1578 130.438C86.7724 130.271 86.3271 130.188 85.8219 130.188H83.275V128.625H85.8219C86.5771 128.625 87.2672 128.753 87.8922 129.008C88.5172 129.258 89.0563 129.62 89.5094 130.094C89.9677 130.568 90.3193 131.135 90.5641 131.797C90.8089 132.458 90.9313 133.198 90.9313 134.016V134.617C90.9313 135.435 90.8089 136.174 90.5641 136.836C90.3193 137.497 89.9677 138.065 89.5094 138.539C89.051 139.008 88.5042 139.37 87.8688 139.625C87.2385 139.875 86.5328 140 85.7516 140ZM84.4078 128.625V140H82.4469V128.625H84.4078ZM94.8781 131.547V140H92.9875V131.547H94.8781ZM92.8625 129.328C92.8625 129.042 92.9563 128.805 93.1438 128.617C93.3365 128.424 93.6021 128.328 93.9406 128.328C94.274 128.328 94.537 128.424 94.7297 128.617C94.9224 128.805 95.0188 129.042 95.0188 129.328C95.0188 129.609 94.9224 129.844 94.7297 130.031C94.537 130.219 94.274 130.312 93.9406 130.312C93.6021 130.312 93.3365 130.219 93.1438 130.031C92.9563 129.844 92.8625 129.609 92.8625 129.328ZM101.833 137.711C101.833 137.523 101.786 137.354 101.692 137.203C101.598 137.047 101.419 136.906 101.153 136.781C100.893 136.656 100.507 136.542 99.9969 136.438C99.549 136.339 99.1375 136.221 98.7625 136.086C98.3927 135.945 98.075 135.776 97.8094 135.578C97.5437 135.38 97.338 135.146 97.1922 134.875C97.0464 134.604 96.9734 134.292 96.9734 133.938C96.9734 133.594 97.049 133.268 97.2 132.961C97.351 132.654 97.5672 132.383 97.8484 132.148C98.1297 131.914 98.4708 131.729 98.8719 131.594C99.2781 131.458 99.7312 131.391 100.231 131.391C100.94 131.391 101.546 131.51 102.052 131.75C102.562 131.984 102.953 132.305 103.223 132.711C103.494 133.112 103.63 133.565 103.63 134.07H101.747C101.747 133.846 101.69 133.638 101.575 133.445C101.466 133.247 101.299 133.089 101.075 132.969C100.851 132.844 100.57 132.781 100.231 132.781C99.9083 132.781 99.6401 132.833 99.4266 132.938C99.2182 133.036 99.062 133.167 98.9578 133.328C98.8589 133.49 98.8094 133.667 98.8094 133.859C98.8094 134 98.8354 134.128 98.8875 134.242C98.9448 134.352 99.0385 134.453 99.1687 134.547C99.299 134.635 99.476 134.719 99.7 134.797C99.9292 134.875 100.216 134.951 100.559 135.023C101.205 135.159 101.76 135.333 102.223 135.547C102.692 135.755 103.052 136.026 103.302 136.359C103.552 136.688 103.677 137.104 103.677 137.609C103.677 137.984 103.596 138.328 103.434 138.641C103.278 138.948 103.049 139.216 102.747 139.445C102.445 139.669 102.083 139.844 101.661 139.969C101.244 140.094 100.776 140.156 100.255 140.156C99.4891 140.156 98.8406 140.021 98.3094 139.75C97.7781 139.474 97.3745 139.122 97.0984 138.695C96.8276 138.263 96.6922 137.815 96.6922 137.352H98.5125C98.5333 137.701 98.6297 137.979 98.8016 138.188C98.9786 138.391 99.1974 138.539 99.4578 138.633C99.7234 138.721 99.9969 138.766 100.278 138.766C100.617 138.766 100.901 138.721 101.13 138.633C101.359 138.539 101.533 138.414 101.653 138.258C101.773 138.096 101.833 137.914 101.833 137.711ZM107.366 133.172V143.25H105.483V131.547H107.217L107.366 133.172ZM112.873 135.695V135.859C112.873 136.474 112.801 137.044 112.655 137.57C112.514 138.091 112.303 138.547 112.022 138.938C111.746 139.323 111.405 139.622 110.998 139.836C110.592 140.049 110.123 140.156 109.592 140.156C109.066 140.156 108.605 140.06 108.209 139.867C107.819 139.669 107.488 139.391 107.217 139.031C106.946 138.672 106.728 138.25 106.561 137.766C106.399 137.276 106.285 136.74 106.217 136.156V135.523C106.285 134.904 106.399 134.341 106.561 133.836C106.728 133.331 106.946 132.896 107.217 132.531C107.488 132.167 107.819 131.885 108.209 131.688C108.6 131.49 109.056 131.391 109.577 131.391C110.108 131.391 110.579 131.495 110.991 131.703C111.402 131.906 111.748 132.198 112.03 132.578C112.311 132.953 112.522 133.406 112.662 133.938C112.803 134.464 112.873 135.049 112.873 135.695ZM110.991 135.859V135.695C110.991 135.305 110.954 134.943 110.881 134.609C110.808 134.271 110.694 133.974 110.537 133.719C110.381 133.464 110.181 133.266 109.936 133.125C109.696 132.979 109.407 132.906 109.069 132.906C108.735 132.906 108.449 132.964 108.209 133.078C107.97 133.188 107.769 133.341 107.608 133.539C107.446 133.737 107.321 133.969 107.233 134.234C107.144 134.495 107.082 134.779 107.045 135.086V136.602C107.108 136.977 107.215 137.32 107.366 137.633C107.517 137.945 107.73 138.195 108.006 138.383C108.287 138.565 108.647 138.656 109.084 138.656C109.423 138.656 109.712 138.583 109.952 138.438C110.191 138.292 110.386 138.091 110.537 137.836C110.694 137.576 110.808 137.276 110.881 136.938C110.954 136.599 110.991 136.24 110.991 135.859ZM116.641 128V140H114.75V128H116.641ZM123.619 138.305V134.273C123.619 133.971 123.564 133.711 123.455 133.492C123.345 133.273 123.179 133.104 122.955 132.984C122.736 132.865 122.46 132.805 122.127 132.805C121.819 132.805 121.554 132.857 121.33 132.961C121.106 133.065 120.931 133.206 120.806 133.383C120.681 133.56 120.619 133.76 120.619 133.984H118.744C118.744 133.651 118.824 133.328 118.986 133.016C119.147 132.703 119.382 132.424 119.689 132.18C119.996 131.935 120.364 131.742 120.791 131.602C121.218 131.461 121.697 131.391 122.228 131.391C122.864 131.391 123.426 131.497 123.916 131.711C124.41 131.924 124.798 132.247 125.08 132.68C125.366 133.107 125.509 133.643 125.509 134.289V138.047C125.509 138.432 125.535 138.779 125.588 139.086C125.645 139.388 125.726 139.651 125.83 139.875V140H123.9C123.811 139.797 123.741 139.539 123.689 139.227C123.642 138.909 123.619 138.602 123.619 138.305ZM123.892 134.859L123.908 136.023H122.556C122.207 136.023 121.9 136.057 121.634 136.125C121.369 136.188 121.147 136.281 120.97 136.406C120.793 136.531 120.66 136.682 120.572 136.859C120.483 137.036 120.439 137.237 120.439 137.461C120.439 137.685 120.491 137.891 120.595 138.078C120.699 138.26 120.851 138.404 121.048 138.508C121.252 138.612 121.496 138.664 121.783 138.664C122.168 138.664 122.504 138.586 122.791 138.43C123.082 138.268 123.311 138.073 123.478 137.844C123.645 137.609 123.733 137.388 123.744 137.18L124.353 138.016C124.291 138.229 124.184 138.458 124.033 138.703C123.882 138.948 123.684 139.182 123.439 139.406C123.199 139.625 122.91 139.805 122.572 139.945C122.239 140.086 121.853 140.156 121.416 140.156C120.864 140.156 120.371 140.047 119.939 139.828C119.507 139.604 119.168 139.305 118.923 138.93C118.679 138.549 118.556 138.12 118.556 137.641C118.556 137.193 118.64 136.797 118.806 136.453C118.978 136.104 119.228 135.812 119.556 135.578C119.89 135.344 120.296 135.167 120.775 135.047C121.254 134.922 121.801 134.859 122.416 134.859H123.892ZM129.956 139.078L132.253 131.547H134.269L130.878 141.289C130.8 141.497 130.698 141.724 130.573 141.969C130.448 142.214 130.284 142.445 130.081 142.664C129.883 142.888 129.636 143.068 129.339 143.203C129.042 143.344 128.683 143.414 128.261 143.414C128.094 143.414 127.933 143.398 127.777 143.367C127.626 143.341 127.482 143.312 127.347 143.281L127.339 141.844C127.391 141.849 127.454 141.854 127.527 141.859C127.605 141.865 127.667 141.867 127.714 141.867C128.027 141.867 128.287 141.828 128.495 141.75C128.704 141.677 128.873 141.557 129.003 141.391C129.139 141.224 129.253 141 129.347 140.719L129.956 139.078ZM128.659 131.547L130.667 137.875L131.003 139.859L129.698 140.195L126.628 131.547H128.659Z" fill="#134E4A"/>
</svg>
