<svg width="156" height="90" viewBox="0 0 156 90" fill="none" xmlns="http://www.w3.org/2000/svg">
<path fill-rule="evenodd" clip-rule="evenodd" d="M135.478 3.51703C134.265 1.03843 131.267 -0.00807925 128.788 1.20493L92.7359 18.8487C90.2573 20.0617 89.2218 23.0821 90.4348 25.5607L103.668 52.5999C104.881 55.0785 107.901 56.114 110.38 54.901L141.925 39.4628L155.349 44.0649L135.478 3.51703ZM135.261 31.5524L112.729 42.5797C111.489 43.1862 109.979 42.6685 109.373 41.4292C108.766 40.1899 109.284 38.6797 110.523 38.0732L133.056 27.0459C134.295 26.4394 135.805 26.9571 136.412 28.1964C137.018 29.4357 136.501 30.9459 135.261 31.5524ZM131.953 24.7926L109.42 35.8199C108.181 36.4264 106.671 35.9087 106.064 34.6694C105.458 33.4301 105.976 31.9199 107.215 31.3134L129.748 20.286C130.987 19.6795 132.497 20.1973 133.104 21.4366C133.71 22.6759 133.192 24.1861 131.953 24.7926ZM128.645 18.0328L106.112 29.0601C104.873 29.6666 103.363 29.1489 102.756 27.9096C102.15 26.6703 102.667 25.1601 103.907 24.5535L126.439 13.5262C127.679 12.9197 129.189 13.4375 129.795 14.6768C130.402 15.9161 129.884 17.4263 128.645 18.0328ZM70.5174 9.49277C68.6395 5.65564 63.9985 4.03552 60.1614 5.91338L4.34854 33.2277C0.511411 35.1056 -1.09163 39.7815 0.786231 43.6186L21.272 85.4782C23.1498 89.3154 27.8257 90.9184 31.6629 89.0406L80.4991 65.1405L101.281 72.2651L70.5174 9.49277ZM70.1822 52.8944L35.2992 69.9659C33.3806 70.9048 31.0427 70.1033 30.1038 68.1848C29.1648 66.2662 29.9663 63.9282 31.8849 62.9893L66.7679 45.9178C68.6865 44.9789 71.0245 45.7804 71.9634 47.699C72.9023 49.6176 72.1008 51.9555 70.1822 52.8944ZM65.0608 42.4295L30.1778 59.501C28.2592 60.4399 25.9212 59.6384 24.9823 57.7198C24.0434 55.8013 24.8449 53.4633 26.7635 52.5244L61.6465 35.4529C63.5651 34.514 65.903 35.3155 66.8419 37.2341C67.7809 39.1527 66.9794 41.4906 65.0608 42.4295ZM59.9393 31.9646L25.0563 49.0361C23.1378 49.975 20.7998 49.1735 19.8609 47.2549C18.9219 45.3364 19.7235 42.9984 21.642 42.0595L56.5251 24.988C58.4436 24.0491 60.7816 24.8506 61.7205 26.7692C62.6594 28.6878 61.8579 31.0257 59.9393 31.9646ZM137.317 53.701C138.961 52.8966 140.949 53.5906 141.753 55.2344L154.932 82.125L146.029 79.073L125.108 89.3113C123.465 90.1158 121.462 89.4291 120.657 87.7853L111.881 69.8533C111.077 68.2096 111.764 66.2065 113.407 65.402L137.317 53.701ZM126.666 81.1401L141.61 73.8269C142.431 73.4247 142.775 72.4232 142.373 71.6013C141.97 70.7794 140.969 70.4361 140.147 70.8383L125.204 78.1514C124.382 78.5536 124.038 79.5552 124.441 80.3771C124.843 81.1989 125.844 81.5423 126.666 81.1401ZM124.472 76.6571L139.416 69.3439C140.237 68.9417 140.581 67.9402 140.179 67.1183C139.776 66.2964 138.775 65.9531 137.953 66.3553L123.01 73.6684C122.188 74.0706 121.844 75.0722 122.247 75.8941C122.649 76.7159 123.65 77.0593 124.472 76.6571ZM122.278 72.1741L137.222 64.861C138.044 64.4587 138.387 63.4572 137.985 62.6353C137.582 61.8134 136.581 61.4701 135.759 61.8723L120.816 69.1854C119.994 69.5876 119.65 70.5892 120.053 71.4111C120.455 72.2329 121.456 72.5763 122.278 72.1741Z" fill="#D2DDE4"/>
</svg>
