<svg width="51" height="18" viewBox="0 0 51 18" fill="none" xmlns="http://www.w3.org/2000/svg">
<g clip-path="url(#clip0_232_38601)">
<path d="M35.25 13.0949V15.3749C35.25 15.5849 35.415 15.7499 35.625 15.7499H37.905C38.0025 15.7499 38.1 15.7124 38.1675 15.6374L46.3575 7.45492L43.545 4.64242L35.3625 12.8249C35.2875 12.8999 35.25 12.9899 35.25 13.0949ZM48.5325 5.27992C48.825 4.98742 48.825 4.51492 48.5325 4.22242L46.7775 2.46742C46.485 2.17492 46.0125 2.17492 45.72 2.46742L44.3475 3.83992L47.16 6.65242L48.5325 5.27992V5.27992Z" fill="#14B8A6"/>
</g>
<g clip-path="url(#clip1_232_38601)">
<path d="M9 3C5.25 3 2.0475 5.3325 0.75 8.625C2.0475 11.9175 5.25 14.25 9 14.25C12.75 14.25 15.9525 11.9175 17.25 8.625C15.9525 5.3325 12.75 3 9 3ZM9 12.375C6.93 12.375 5.25 10.695 5.25 8.625C5.25 6.555 6.93 4.875 9 4.875C11.07 4.875 12.75 6.555 12.75 8.625C12.75 10.695 11.07 12.375 9 12.375ZM9 6.375C7.755 6.375 6.75 7.38 6.75 8.625C6.75 9.87 7.755 10.875 9 10.875C10.245 10.875 11.25 9.87 11.25 8.625C11.25 7.38 10.245 6.375 9 6.375Z" fill="#14B8A6"/>
</g>
<defs>
<clipPath id="clip0_232_38601">
<rect width="18" height="18" fill="white" transform="translate(33)"/>
</clipPath>
<clipPath id="clip1_232_38601">
<rect width="18" height="18" fill="white"/>
</clipPath>
</defs>
</svg>
