<svg width="45" height="18" viewBox="0 0 45 18" fill="none" xmlns="http://www.w3.org/2000/svg">
<path d="M32.587 15.5217C32.2043 15.5217 31.8769 15.3856 31.6047 15.1134C31.332 14.8407 31.1957 14.513 31.1957 14.1304V5.08696C30.9986 5.08696 30.8332 5.02041 30.6997 4.8873C30.5666 4.75374 30.5 4.58841 30.5 4.3913C30.5 4.1942 30.5666 4.02887 30.6997 3.8953C30.8332 3.7622 30.9986 3.69565 31.1957 3.69565H33.9783C33.9783 3.49855 34.045 3.33322 34.1786 3.19965C34.3117 3.06655 34.4768 3 34.6739 3H37.4565C37.6536 3 37.819 3.06655 37.9525 3.19965C38.0856 3.33322 38.1522 3.49855 38.1522 3.69565H40.9348C41.1319 3.69565 41.297 3.7622 41.4301 3.8953C41.5637 4.02887 41.6304 4.1942 41.6304 4.3913C41.6304 4.58841 41.5637 4.75374 41.4301 4.8873C41.297 5.02041 41.1319 5.08696 40.9348 5.08696V14.1304C40.9348 14.513 40.7987 14.8407 40.5264 15.1134C40.2537 15.3856 39.9261 15.5217 39.5435 15.5217H32.587ZM32.587 5.08696V14.1304H39.5435V5.08696H32.587ZM33.9783 12.0435C33.9783 12.2406 34.045 12.4057 34.1786 12.5388C34.3117 12.6723 34.4768 12.7391 34.6739 12.7391C34.871 12.7391 35.0363 12.6723 35.1699 12.5388C35.303 12.4057 35.3696 12.2406 35.3696 12.0435V7.17391C35.3696 6.97681 35.303 6.81148 35.1699 6.67791C35.0363 6.54481 34.871 6.47826 34.6739 6.47826C34.4768 6.47826 34.3117 6.54481 34.1786 6.67791C34.045 6.81148 33.9783 6.97681 33.9783 7.17391V12.0435ZM36.7609 12.0435C36.7609 12.2406 36.8277 12.4057 36.9612 12.5388C37.0943 12.6723 37.2594 12.7391 37.4565 12.7391C37.6536 12.7391 37.819 12.6723 37.9525 12.5388C38.0856 12.4057 38.1522 12.2406 38.1522 12.0435V7.17391C38.1522 6.97681 38.0856 6.81148 37.9525 6.67791C37.819 6.54481 37.6536 6.47826 37.4565 6.47826C37.2594 6.47826 37.0943 6.54481 36.9612 6.67791C36.8277 6.81148 36.7609 6.97681 36.7609 7.17391V12.0435ZM32.587 5.08696V14.1304V5.08696Z" fill="#F2FBFF"/>
<path fill-rule="evenodd" clip-rule="evenodd" d="M14.295 2.69247L15.3075 3.70497C15.9 4.28997 15.9 5.24247 15.3075 5.82747L5.385 15.75H2.25V12.615L10.05 4.80747L12.1725 2.69247C12.7575 2.10747 13.71 2.10747 14.295 2.69247ZM3.75 14.25L4.8075 14.295L12.1725 6.92247L11.115 5.86497L3.75 13.23V14.25Z" fill="#F2FBFF"/>
</svg>
