<svg width="20" height="11" viewBox="0 0 20 11" fill="none" xmlns="http://www.w3.org/2000/svg">
<path d="M1.08333 6.5C1.67917 6.5 2.16667 6.0125 2.16667 5.41667C2.16667 4.82083 1.67917 4.33333 1.08333 4.33333C0.4875 4.33333 0 4.82083 0 5.41667C0 6.0125 0.4875 6.5 1.08333 6.5ZM1.08333 10.8333C1.67917 10.8333 2.16667 10.3458 2.16667 9.75C2.16667 9.15417 1.67917 8.66667 1.08333 8.66667C0.4875 8.66667 0 9.15417 0 9.75C0 10.3458 0.4875 10.8333 1.08333 10.8333ZM1.08333 2.16667C1.67917 2.16667 2.16667 1.67917 2.16667 1.08333C2.16667 0.4875 1.67917 0 1.08333 0C0.4875 0 0 0.4875 0 1.08333C0 1.67917 0.4875 2.16667 1.08333 2.16667ZM5.41667 6.5H18.4167C19.0125 6.5 19.5 6.0125 19.5 5.41667C19.5 4.82083 19.0125 4.33333 18.4167 4.33333H5.41667C4.82083 4.33333 4.33333 4.82083 4.33333 5.41667C4.33333 6.0125 4.82083 6.5 5.41667 6.5ZM5.41667 10.8333H18.4167C19.0125 10.8333 19.5 10.3458 19.5 9.75C19.5 9.15417 19.0125 8.66667 18.4167 8.66667H5.41667C4.82083 8.66667 4.33333 9.15417 4.33333 9.75C4.33333 10.3458 4.82083 10.8333 5.41667 10.8333ZM4.33333 1.08333C4.33333 1.67917 4.82083 2.16667 5.41667 2.16667H18.4167C19.0125 2.16667 19.5 1.67917 19.5 1.08333C19.5 0.4875 19.0125 0 18.4167 0H5.41667C4.82083 0 4.33333 0.4875 4.33333 1.08333ZM1.08333 6.5C1.67917 6.5 2.16667 6.0125 2.16667 5.41667C2.16667 4.82083 1.67917 4.33333 1.08333 4.33333C0.4875 4.33333 0 4.82083 0 5.41667C0 6.0125 0.4875 6.5 1.08333 6.5ZM1.08333 10.8333C1.67917 10.8333 2.16667 10.3458 2.16667 9.75C2.16667 9.15417 1.67917 8.66667 1.08333 8.66667C0.4875 8.66667 0 9.15417 0 9.75C0 10.3458 0.4875 10.8333 1.08333 10.8333ZM1.08333 2.16667C1.67917 2.16667 2.16667 1.67917 2.16667 1.08333C2.16667 0.4875 1.67917 0 1.08333 0C0.4875 0 0 0.4875 0 1.08333C0 1.67917 0.4875 2.16667 1.08333 2.16667ZM5.41667 6.5H18.4167C19.0125 6.5 19.5 6.0125 19.5 5.41667C19.5 4.82083 19.0125 4.33333 18.4167 4.33333H5.41667C4.82083 4.33333 4.33333 4.82083 4.33333 5.41667C4.33333 6.0125 4.82083 6.5 5.41667 6.5ZM5.41667 10.8333H18.4167C19.0125 10.8333 19.5 10.3458 19.5 9.75C19.5 9.15417 19.0125 8.66667 18.4167 8.66667H5.41667C4.82083 8.66667 4.33333 9.15417 4.33333 9.75C4.33333 10.3458 4.82083 10.8333 5.41667 10.8333ZM4.33333 1.08333C4.33333 1.67917 4.82083 2.16667 5.41667 2.16667H18.4167C19.0125 2.16667 19.5 1.67917 19.5 1.08333C19.5 0.4875 19.0125 0 18.4167 0H5.41667C4.82083 0 4.33333 0.4875 4.33333 1.08333Z" fill="#14B8A6"/>
</svg>
