<svg width="910" height="36" viewBox="0 0 910 36" fill="none" xmlns="http://www.w3.org/2000/svg">
<path d="M574.167 19.3333H568.333V25.1667C568.333 25.8083 567.808 26.3333 567.167 26.3333C566.525 26.3333 566 25.8083 566 25.1667V19.3333H560.167C559.525 19.3333 559 18.8083 559 18.1667C559 17.525 559.525 17 560.167 17H566V11.1667C566 10.525 566.525 10 567.167 10C567.808 10 568.333 10.525 568.333 11.1667V17H574.167C574.808 17 575.333 17.525 575.333 18.1667C575.333 18.8083 574.808 19.3333 574.167 19.3333Z" fill="#F2FBFF"/>
<g clip-path="url(#clip0_108_38620)">
<path d="M470.25 14.25H471.75V15.75H470.25V14.25ZM471 21.75C471.412 21.75 471.75 21.4125 471.75 21V18C471.75 17.5875 471.412 17.25 471 17.25C470.588 17.25 470.25 17.5875 470.25 18V21C470.25 21.4125 470.588 21.75 471 21.75ZM471 10.5C466.86 10.5 463.5 13.86 463.5 18C463.5 22.14 466.86 25.5 471 25.5C475.14 25.5 478.5 22.14 478.5 18C478.5 13.86 475.14 10.5 471 10.5ZM471 24C467.693 24 465 21.3075 465 18C465 14.6925 467.693 12 471 12C474.307 12 477 14.6925 477 18C477 21.3075 474.307 24 471 24Z" fill="#7D949D"/>
</g>
<path d="M132.296 17.3433L134.886 19.9333C135.276 20.3233 135.906 20.3233 136.296 19.9333L138.886 17.3433C139.516 16.7133 139.066 15.6333 138.176 15.6333H132.996C132.106 15.6333 131.666 16.7133 132.296 17.3433Z" fill="#009EBE"/>
<path d="M3.36667 12.3933L3.10667 12.1333C2.84667 11.8733 2.42667 11.88 2.17333 12.1333L2.16667 12.14C1.90667 12.4 1.90667 12.82 2.16667 13.0733L2.42667 13.3333C2.68667 13.5933 3.1 13.5933 3.36 13.3333L3.36667 13.3267C3.62667 13.0733 3.62667 12.6467 3.36667 12.3933ZM1.34 16.6333H0.66C0.293333 16.6333 0 16.9267 0 17.2933V17.3C0 17.6667 0.293333 17.96 0.66 17.96H1.33333C1.70667 17.9667 2 17.6733 2 17.3067V17.3C2 16.9267 1.70667 16.6333 1.34 16.6333ZM7.34 10H7.33333C6.96 10 6.66667 10.2933 6.66667 10.66V11.3C6.66667 11.6667 6.96 11.96 7.32667 11.96H7.33333C7.70667 11.9667 8 11.6733 8 11.3067V10.66C8 10.2933 7.70667 10 7.34 10ZM12.5 12.14C12.24 11.88 11.82 11.88 11.56 12.1333L11.3 12.3933C11.04 12.6533 11.04 13.0733 11.3 13.3267L11.3067 13.3333C11.5667 13.5933 11.9867 13.5933 12.24 13.3333L12.5 13.0733C12.76 12.8133 12.76 12.4 12.5 12.14ZM11.2933 22.2067L11.5533 22.4667C11.8133 22.7267 12.2333 22.7267 12.4933 22.4667C12.7533 22.2067 12.7533 21.7867 12.4933 21.5267L12.2333 21.2667C11.9733 21.0067 11.5533 21.0133 11.3 21.2667C11.0333 21.5333 11.0333 21.9467 11.2933 22.2067ZM12.6667 17.2933V17.3C12.6667 17.6667 12.96 17.96 13.3267 17.96H14C14.3667 17.96 14.66 17.6667 14.66 17.3V17.2933C14.66 16.9267 14.3667 16.6333 14 16.6333H13.3267C12.96 16.6333 12.6667 16.9267 12.6667 17.2933ZM7.33333 13.3C5.12667 13.3 3.33333 15.0933 3.33333 17.3C3.33333 19.5067 5.12667 21.3 7.33333 21.3C9.54 21.3 11.3333 19.5067 11.3333 17.3C11.3333 15.0933 9.54 13.3 7.33333 13.3ZM7.32667 24.6H7.33333C7.7 24.6 7.99333 24.3067 7.99333 23.94V23.3C7.99333 22.9333 7.7 22.64 7.33333 22.64H7.32667C6.96 22.64 6.66667 22.9333 6.66667 23.3V23.94C6.66667 24.3067 6.96 24.6 7.32667 24.6ZM2.16667 22.46C2.42667 22.72 2.84667 22.72 3.10667 22.46L3.36667 22.2C3.62667 21.94 3.62 21.52 3.36667 21.2667L3.36 21.26C3.1 21 2.68 21 2.42 21.26L2.16 21.52C1.90667 21.7867 1.90667 22.2 2.16667 22.46Z" fill="white"/>
<path d="M69.3667 12.3933L69.1067 12.1333C68.8467 11.8733 68.4267 11.88 68.1733 12.1333L68.1667 12.14C67.9067 12.4 67.9067 12.82 68.1667 13.0733L68.4267 13.3333C68.6867 13.5933 69.1 13.5933 69.36 13.3333L69.3667 13.3267C69.6267 13.0733 69.6267 12.6467 69.3667 12.3933ZM67.34 16.6333H66.66C66.2933 16.6333 66 16.9267 66 17.2933V17.3C66 17.6667 66.2933 17.96 66.66 17.96H67.3333C67.7067 17.9667 68 17.6733 68 17.3067V17.3C68 16.9267 67.7067 16.6333 67.34 16.6333ZM73.34 10H73.3333C72.96 10 72.6667 10.2933 72.6667 10.66V11.3C72.6667 11.6667 72.96 11.96 73.3267 11.96H73.3333C73.7067 11.9667 74 11.6733 74 11.3067V10.66C74 10.2933 73.7067 10 73.34 10ZM78.5 12.14C78.24 11.88 77.82 11.88 77.56 12.1333L77.3 12.3933C77.04 12.6533 77.04 13.0733 77.3 13.3267L77.3067 13.3333C77.5667 13.5933 77.9867 13.5933 78.24 13.3333L78.5 13.0733C78.76 12.8133 78.76 12.4 78.5 12.14ZM77.2933 22.2067L77.5533 22.4667C77.8133 22.7267 78.2333 22.7267 78.4933 22.4667C78.7533 22.2067 78.7533 21.7867 78.4933 21.5267L78.2333 21.2667C77.9733 21.0067 77.5533 21.0133 77.3 21.2667C77.0333 21.5333 77.0333 21.9467 77.2933 22.2067ZM78.6667 17.2933V17.3C78.6667 17.6667 78.96 17.96 79.3267 17.96H80C80.3667 17.96 80.66 17.6667 80.66 17.3V17.2933C80.66 16.9267 80.3667 16.6333 80 16.6333H79.3267C78.96 16.6333 78.6667 16.9267 78.6667 17.2933ZM73.3333 13.3C71.1267 13.3 69.3333 15.0933 69.3333 17.3C69.3333 19.5067 71.1267 21.3 73.3333 21.3C75.54 21.3 77.3333 19.5067 77.3333 17.3C77.3333 15.0933 75.54 13.3 73.3333 13.3ZM73.3267 24.6H73.3333C73.7 24.6 73.9933 24.3067 73.9933 23.94V23.3C73.9933 22.9333 73.7 22.64 73.3333 22.64H73.3267C72.96 22.64 72.6667 22.9333 72.6667 23.3V23.94C72.6667 24.3067 72.96 24.6 73.3267 24.6ZM68.1667 22.46C68.4267 22.72 68.8467 22.72 69.1067 22.46L69.3667 22.2C69.6267 21.94 69.62 21.52 69.3667 21.2667L69.36 21.26C69.1 21 68.68 21 68.42 21.26L68.16 21.52C67.9067 21.7867 67.9067 22.2 68.1667 22.46Z" fill="#009EBE"/>
<path fill-rule="evenodd" clip-rule="evenodd" d="M37.5815 10.8069C34.7562 12.0298 33.0113 15.1142 33.3829 18.2289C33.5933 19.9931 34.3295 21.4686 35.6053 22.6838C39.0818 25.9949 44.9059 24.9439 47.0168 20.6246C47.3707 19.9004 47.4036 19.7127 47.2345 19.3857C47.0513 19.0313 46.8053 18.9999 45.9877 19.2266C44.0004 19.7774 41.8638 19.2431 40.3447 17.8155C39.0561 16.6046 38.4124 14.9953 38.5083 13.2251C38.5341 12.7499 38.6126 12.241 38.7054 11.9474C38.9034 11.3206 38.9009 11.0995 38.6926 10.8629C38.4389 10.5745 38.152 10.5601 37.5815 10.8069Z" fill="white"/>
<path fill-rule="evenodd" clip-rule="evenodd" d="M103.582 10.8069C100.756 12.0298 99.0113 15.1142 99.3829 18.2289C99.5933 19.9931 100.329 21.4686 101.605 22.6838C105.082 25.9949 110.906 24.9439 113.017 20.6246C113.371 19.9004 113.404 19.7127 113.234 19.3857C113.051 19.0313 112.805 18.9999 111.988 19.2266C110 19.7774 107.864 19.2431 106.345 17.8155C105.056 16.6046 104.412 14.9953 104.508 13.2251C104.534 12.7499 104.613 12.241 104.705 11.9474C104.903 11.3206 104.901 11.0995 104.693 10.8629C104.439 10.5745 104.152 10.5601 103.582 10.8069Z" fill="#009EBE"/>
<g clip-path="url(#clip1_108_38620)">
<path d="M178 25H171C170.45 25 170 25.45 170 26C170 26.55 170.45 27 171 27H178C179.1 27 180 26.1 180 25V11C180 9.9 179.1 9 178 9H171C170.45 9 170 9.45 170 10C170 10.55 170.45 11 171 11H178V25Z" fill="#009EBE"/>
<path d="M165.283 20.9003C165.673 21.2903 165.673 21.9103 165.283 22.3003C164.893 22.6903 164.273 22.6903 163.883 22.3003L160.293 18.7003C159.903 18.3103 159.903 17.6803 160.293 17.2903L163.883 13.7003C164.273 13.3103 164.893 13.3103 165.283 13.7003C165.673 14.0903 165.673 14.7103 165.283 15.1003L163.383 17.0003L172.583 17.0003C173.133 17.0003 173.583 17.4503 173.583 18.0003C173.583 18.5503 173.133 19.0003 172.583 19.0003L163.383 19.0003L165.283 20.9003Z" fill="#009EBE"/>
</g>
<g clip-path="url(#clip2_108_38620)">
<path d="M428.535 24.7576C428.902 25.1251 429.495 25.1251 429.862 24.7576L436.095 18.5251C436.387 18.2326 436.387 17.7601 436.095 17.4676L429.862 11.2351C429.495 10.8676 428.902 10.8676 428.535 11.2351C428.167 11.6026 428.167 12.1951 428.535 12.5626L433.965 18.0001L428.527 23.4376C428.167 23.7976 428.167 24.3976 428.535 24.7576Z" fill="#7D949D"/>
</g>
<g clip-path="url(#clip3_108_38620)">
<path d="M216 13.5H210L208.943 12.4425C208.658 12.1575 208.275 12 207.878 12H204C203.175 12 202.507 12.675 202.507 13.5L202.5 22.5C202.5 23.325 203.175 24 204 24H216C216.825 24 217.5 23.325 217.5 22.5V15C217.5 14.175 216.825 13.5 216 13.5ZM215.25 22.5H204.75C204.337 22.5 204 22.1625 204 21.75V15.75C204 15.3375 204.337 15 204.75 15H215.25C215.663 15 216 15.3375 216 15.75V21.75C216 22.1625 215.663 22.5 215.25 22.5Z" fill="#009EBE"/>
</g>
<g clip-path="url(#clip4_108_38620)">
<path d="M327 13.5H321L319.943 12.4425C319.658 12.1575 319.275 12 318.878 12H315C314.175 12 313.507 12.675 313.507 13.5L313.5 22.5C313.5 23.325 314.175 24 315 24H327C327.825 24 328.5 23.325 328.5 22.5V15C328.5 14.175 327.825 13.5 327 13.5ZM326.25 22.5H315.75C315.337 22.5 315 22.1625 315 21.75V15.75C315 15.3375 315.337 15 315.75 15H326.25C326.663 15 327 15.3375 327 15.75V21.75C327 22.1625 326.663 22.5 326.25 22.5Z" fill="#7D949D"/>
</g>
<g clip-path="url(#clip5_108_38620)">
<path d="M251.125 12.375C249.663 12.375 248.087 12.675 247 13.5C245.912 12.675 244.338 12.375 242.875 12.375C241.787 12.375 240.632 12.54 239.665 12.9675C239.118 13.215 238.75 13.7475 238.75 14.355V22.815C238.75 23.79 239.665 24.51 240.61 24.27C241.345 24.0825 242.125 24 242.875 24C244.045 24 245.29 24.195 246.295 24.69C246.745 24.915 247.255 24.915 247.698 24.69C248.703 24.1875 249.948 24 251.118 24C251.868 24 252.648 24.0825 253.382 24.27C254.328 24.5175 255.243 23.7975 255.243 22.815V14.355C255.243 13.7475 254.875 13.215 254.328 12.9675C253.368 12.54 252.212 12.375 251.125 12.375ZM253.75 21.9225C253.75 22.395 253.315 22.74 252.85 22.6575C252.287 22.5525 251.703 22.5075 251.125 22.5075C249.85 22.5075 248.012 22.995 247 23.6325V15C248.012 14.3625 249.85 13.875 251.125 13.875C251.815 13.875 252.498 13.9425 253.15 14.085C253.495 14.16 253.75 14.4675 253.75 14.82V21.9225Z" fill="#009EBE"/>
<path d="M248.485 17.2574C248.245 17.2574 248.028 17.1074 247.953 16.8674C247.855 16.5749 248.02 16.2524 248.313 16.1624C249.468 15.7874 250.96 15.6674 252.333 15.8249C252.64 15.8624 252.865 16.1399 252.828 16.4474C252.79 16.7549 252.513 16.9799 252.205 16.9424C250.99 16.7999 249.663 16.9124 248.658 17.2349C248.598 17.2424 248.538 17.2574 248.485 17.2574Z" fill="#009EBE"/>
<path d="M248.485 19.2525C248.245 19.2525 248.028 19.1025 247.953 18.8625C247.855 18.57 248.02 18.2475 248.313 18.1575C249.46 17.7825 250.96 17.6625 252.333 17.82C252.64 17.8575 252.865 18.135 252.828 18.4425C252.79 18.75 252.513 18.975 252.205 18.9375C250.99 18.795 249.663 18.9075 248.658 19.23C248.598 19.245 248.538 19.2525 248.485 19.2525Z" fill="#009EBE"/>
<path d="M248.485 21.2476C248.245 21.2476 248.028 21.0976 247.953 20.8576C247.855 20.5651 248.02 20.2426 248.313 20.1526C249.46 19.7776 250.96 19.6576 252.333 19.8151C252.64 19.8526 252.865 20.1301 252.828 20.4376C252.79 20.7451 252.513 20.9626 252.205 20.9326C250.99 20.7901 249.663 20.9026 248.658 21.2251C248.598 21.2401 248.538 21.2476 248.485 21.2476Z" fill="#009EBE"/>
</g>
<g clip-path="url(#clip6_108_38620)">
<path d="M362.125 12.375C360.663 12.375 359.087 12.675 358 13.5C356.912 12.675 355.338 12.375 353.875 12.375C352.787 12.375 351.632 12.54 350.665 12.9675C350.118 13.215 349.75 13.7475 349.75 14.355V22.815C349.75 23.79 350.665 24.51 351.61 24.27C352.345 24.0825 353.125 24 353.875 24C355.045 24 356.29 24.195 357.295 24.69C357.745 24.915 358.255 24.915 358.698 24.69C359.703 24.1875 360.948 24 362.118 24C362.868 24 363.648 24.0825 364.382 24.27C365.328 24.5175 366.243 23.7975 366.243 22.815V14.355C366.243 13.7475 365.875 13.215 365.328 12.9675C364.368 12.54 363.212 12.375 362.125 12.375ZM364.75 21.9225C364.75 22.395 364.315 22.74 363.85 22.6575C363.287 22.5525 362.703 22.5075 362.125 22.5075C360.85 22.5075 359.012 22.995 358 23.6325V15C359.012 14.3625 360.85 13.875 362.125 13.875C362.815 13.875 363.498 13.9425 364.15 14.085C364.495 14.16 364.75 14.4675 364.75 14.82V21.9225Z" fill="#7D949D"/>
<path d="M359.485 17.2574C359.245 17.2574 359.028 17.1074 358.953 16.8674C358.855 16.5749 359.02 16.2524 359.313 16.1624C360.468 15.7874 361.96 15.6674 363.333 15.8249C363.64 15.8624 363.865 16.1399 363.828 16.4474C363.79 16.7549 363.513 16.9799 363.205 16.9424C361.99 16.7999 360.663 16.9124 359.658 17.2349C359.598 17.2424 359.538 17.2574 359.485 17.2574Z" fill="#7D949D"/>
<path d="M359.485 19.2525C359.245 19.2525 359.028 19.1025 358.953 18.8625C358.855 18.57 359.02 18.2475 359.313 18.1575C360.46 17.7825 361.96 17.6625 363.333 17.82C363.64 17.8575 363.865 18.135 363.828 18.4425C363.79 18.75 363.513 18.975 363.205 18.9375C361.99 18.795 360.663 18.9075 359.658 19.23C359.598 19.245 359.538 19.2525 359.485 19.2525Z" fill="#7D949D"/>
<path d="M359.485 21.2476C359.245 21.2476 359.028 21.0976 358.953 20.8576C358.855 20.5651 359.02 20.2426 359.313 20.1526C360.46 19.7776 361.96 19.6576 363.333 19.8151C363.64 19.8526 363.865 20.1301 363.828 20.4376C363.79 20.7451 363.513 20.9626 363.205 20.9326C361.99 20.7901 360.663 20.9026 359.658 21.2251C359.598 21.2401 359.538 21.2476 359.485 21.2476Z" fill="#7D949D"/>
</g>
<g clip-path="url(#clip7_108_38620)">
<path d="M279.5 10.5C278.675 10.5 278.008 11.175 278.008 12L278 24C278 24.825 278.667 25.5 279.492 25.5H288.5C289.325 25.5 290 24.825 290 24V15.6225C290 15.225 289.842 14.8425 289.557 14.565L285.935 10.9425C285.657 10.6575 285.275 10.5 284.878 10.5H279.5ZM284.75 15V11.625L288.875 15.75H285.5C285.088 15.75 284.75 15.4125 284.75 15Z" fill="#009EBE"/>
</g>
<g clip-path="url(#clip8_108_38620)">
<path d="M390.5 10.5C389.675 10.5 389.008 11.175 389.008 12L389 24C389 24.825 389.667 25.5 390.492 25.5H399.5C400.325 25.5 401 24.825 401 24V15.6225C401 15.225 400.842 14.8425 400.557 14.565L396.935 10.9425C396.657 10.6575 396.275 10.5 395.878 10.5H390.5ZM395.75 15V11.625L399.875 15.75H396.5C396.088 15.75 395.75 15.4125 395.75 15Z" fill="#7D949D"/>
</g>
<path d="M540 14.1079L538.892 13L534.5 17.3921L530.108 13L529 14.1079L533.392 18.5L529 22.8921L530.108 24L534.5 19.6079L538.892 24L540 22.8921L535.608 18.5L540 14.1079Z" fill="#CEE6F0"/>
<path d="M510 14.1079L508.892 13L504.5 17.3921L500.108 13L499 14.1079L503.392 18.5L499 22.8921L500.108 24L504.5 19.6079L508.892 24L510 22.8921L505.608 18.5L510 14.1079Z" fill="#7D949D"/>
<g clip-path="url(#clip9_108_38620)">
<path d="M622 19.5H614.5V27C614.5 27.825 613.825 28.5 613 28.5C612.175 28.5 611.5 27.825 611.5 27V19.5H604C603.175 19.5 602.5 18.825 602.5 18C602.5 17.175 603.175 16.5 604 16.5H611.5V9C611.5 8.175 612.175 7.5 613 7.5C613.825 7.5 614.5 8.175 614.5 9V16.5H622C622.825 16.5 623.5 17.175 623.5 18C623.5 18.825 622.825 19.5 622 19.5Z" fill="#14B8A6"/>
</g>
<g clip-path="url(#clip10_108_38620)">
<path d="M670 9H656C654.9 9 654 9.9 654 11V25C654 26.1 654.9 27 656 27H670C671.1 27 672 26.1 672 25V11C672 9.9 671.1 9 670 9ZM661.71 22.29C661.32 22.68 660.69 22.68 660.3 22.29L656.71 18.7C656.32 18.31 656.32 17.68 656.71 17.29C657.1 16.9 657.73 16.9 658.12 17.29L661 20.17L667.88 13.29C668.27 12.9 668.9 12.9 669.29 13.29C669.68 13.68 669.68 14.31 669.29 14.7L661.71 22.29Z" fill="#14B8A6"/>
</g>
<path d="M705.667 11H698.333C697.6 11 697 11.6 697 12.3333V21C697 21.3667 697.3 21.6667 697.667 21.6667C698.033 21.6667 698.333 21.3667 698.333 21V13C698.333 12.6333 698.633 12.3333 699 12.3333H705.667C706.033 12.3333 706.333 12.0333 706.333 11.6667C706.333 11.3 706.033 11 705.667 11ZM708.333 13.6667H701C700.267 13.6667 699.667 14.2667 699.667 15V24.3333C699.667 25.0667 700.267 25.6667 701 25.6667H708.333C709.067 25.6667 709.667 25.0667 709.667 24.3333V15C709.667 14.2667 709.067 13.6667 708.333 13.6667ZM707.667 24.3333H701.667C701.3 24.3333 701 24.0333 701 23.6667V15.6667C701 15.3 701.3 15 701.667 15H707.667C708.033 15 708.333 15.3 708.333 15.6667V23.6667C708.333 24.0333 708.033 24.3333 707.667 24.3333Z" fill="#14B8A6"/>
<path d="M737.833 24.3333C737.833 25.25 738.583 26 739.5 26H746.167C747.083 26 747.833 25.25 747.833 24.3333V16C747.833 15.0833 747.083 14.3333 746.167 14.3333H739.5C738.583 14.3333 737.833 15.0833 737.833 16V24.3333ZM740.333 16H745.333C745.792 16 746.167 16.375 746.167 16.8333V23.5C746.167 23.9583 745.792 24.3333 745.333 24.3333H740.333C739.875 24.3333 739.5 23.9583 739.5 23.5V16.8333C739.5 16.375 739.875 16 740.333 16ZM745.75 11.8333L745.158 11.2417C745.008 11.0917 744.792 11 744.575 11H741.092C740.875 11 740.658 11.0917 740.508 11.2417L739.917 11.8333H737.833C737.375 11.8333 737 12.2083 737 12.6667C737 13.125 737.375 13.5 737.833 13.5H747.833C748.292 13.5 748.667 13.125 748.667 12.6667C748.667 12.2083 748.292 11.8333 747.833 11.8333H745.75Z" fill="#14B8A6"/>
<path d="M786.5 15.25H785.75V13.75C785.75 11.68 784.07 10 782 10C779.93 10 778.25 11.68 778.25 13.75V15.25H777.5C776.675 15.25 776 15.925 776 16.75V24.25C776 25.075 776.675 25.75 777.5 25.75H786.5C787.325 25.75 788 25.075 788 24.25V16.75C788 15.925 787.325 15.25 786.5 15.25ZM779.75 13.75C779.75 12.505 780.755 11.5 782 11.5C783.245 11.5 784.25 12.505 784.25 13.75V15.25H779.75V13.75ZM785.75 24.25H778.25C777.837 24.25 777.5 23.9125 777.5 23.5V17.5C777.5 17.0875 777.837 16.75 778.25 16.75H785.75C786.163 16.75 786.5 17.0875 786.5 17.5V23.5C786.5 23.9125 786.163 24.25 785.75 24.25ZM782 22C782.825 22 783.5 21.325 783.5 20.5C783.5 19.675 782.825 19 782 19C781.175 19 780.5 19.675 780.5 20.5C780.5 21.325 781.175 22 782 22Z" fill="#009EBE"/>
<path d="M825 18.625C826.358 18.625 827.558 18.95 828.533 19.375C829.433 19.775 830 20.675 830 21.65V22.1667C830 22.625 829.625 23 829.167 23H820.833C820.375 23 820 22.625 820 22.1667V21.6583C820 20.675 820.567 19.775 821.467 19.3833C822.442 18.95 823.642 18.625 825 18.625ZM818.333 18.8333C819.25 18.8333 820 18.0833 820 17.1667C820 16.25 819.25 15.5 818.333 15.5C817.417 15.5 816.667 16.25 816.667 17.1667C816.667 18.0833 817.417 18.8333 818.333 18.8333ZM819.275 19.75C818.967 19.7 818.658 19.6667 818.333 19.6667C817.508 19.6667 816.725 19.8417 816.017 20.15C815.4 20.4167 815 21.0167 815 21.6917V22.1667C815 22.625 815.375 23 815.833 23H818.75V21.6583C818.75 20.9667 818.942 20.3167 819.275 19.75ZM831.667 18.8333C832.583 18.8333 833.333 18.0833 833.333 17.1667C833.333 16.25 832.583 15.5 831.667 15.5C830.75 15.5 830 16.25 830 17.1667C830 18.0833 830.75 18.8333 831.667 18.8333ZM835 21.6917C835 21.0167 834.6 20.4167 833.983 20.15C833.275 19.8417 832.492 19.6667 831.667 19.6667C831.342 19.6667 831.033 19.7 830.725 19.75C831.058 20.3167 831.25 20.9667 831.25 21.6583V23H834.167C834.625 23 835 22.625 835 22.1667V21.6917ZM825 13C826.383 13 827.5 14.1167 827.5 15.5C827.5 16.8833 826.383 18 825 18C823.617 18 822.5 16.8833 822.5 15.5C822.5 14.1167 823.617 13 825 13Z" fill="#009EBE"/>
<path opacity="0.5" d="M867.333 27.6667C867.333 29.1333 866.133 30.3333 864.667 30.3333C863.2 30.3333 862 29.1333 862 27.6667C862 26.2 863.2 25 864.667 25C866.133 25 867.333 26.2 867.333 27.6667ZM864.667 17C863.2 17 862 18.2 862 19.6667C862 21.1333 863.2 22.3333 864.667 22.3333C866.133 22.3333 867.333 21.1333 867.333 19.6667C867.333 18.2 866.133 17 864.667 17ZM864.667 9C863.2 9 862 10.2 862 11.6667C862 13.1333 863.2 14.3333 864.667 14.3333C866.133 14.3333 867.333 13.1333 867.333 11.6667C867.333 10.2 866.133 9 864.667 9ZM872.667 14.3333C874.133 14.3333 875.333 13.1333 875.333 11.6667C875.333 10.2 874.133 9 872.667 9C871.2 9 870 10.2 870 11.6667C870 13.1333 871.2 14.3333 872.667 14.3333ZM872.667 17C871.2 17 870 18.2 870 19.6667C870 21.1333 871.2 22.3333 872.667 22.3333C874.133 22.3333 875.333 21.1333 875.333 19.6667C875.333 18.2 874.133 17 872.667 17ZM872.667 25C871.2 25 870 26.2 870 27.6667C870 29.1333 871.2 30.3333 872.667 30.3333C874.133 30.3333 875.333 29.1333 875.333 27.6667C875.333 26.2 874.133 25 872.667 25Z" fill="#14B8A6"/>
<path d="M908.333 21.6667H901.667V28.3333C901.667 29.0667 901.067 29.6667 900.333 29.6667C899.6 29.6667 899 29.0667 899 28.3333V21.6667H892.333C891.6 21.6667 891 21.0667 891 20.3333C891 19.6 891.6 19 892.333 19H899V12.3333C899 11.6 899.6 11 900.333 11C901.067 11 901.667 11.6 901.667 12.3333V19H908.333C909.067 19 909.667 19.6 909.667 20.3333C909.667 21.0667 909.067 21.6667 908.333 21.6667Z" fill="#14B8A6"/>
<defs>
<clipPath id="clip0_108_38620">
<rect width="18" height="18" fill="white" transform="translate(462 9)"/>
</clipPath>
<clipPath id="clip1_108_38620">
<rect width="24" height="24" fill="white" transform="translate(158 6)"/>
</clipPath>
<clipPath id="clip2_108_38620">
<rect width="18" height="18" fill="white" transform="translate(423 9)"/>
</clipPath>
<clipPath id="clip3_108_38620">
<rect width="18" height="18" fill="white" transform="translate(201 9)"/>
</clipPath>
<clipPath id="clip4_108_38620">
<rect width="18" height="18" fill="white" transform="translate(312 9)"/>
</clipPath>
<clipPath id="clip5_108_38620">
<rect width="18" height="18" fill="white" transform="translate(238 9)"/>
</clipPath>
<clipPath id="clip6_108_38620">
<rect width="18" height="18" fill="white" transform="translate(349 9)"/>
</clipPath>
<clipPath id="clip7_108_38620">
<rect width="18" height="18" fill="white" transform="translate(275 9)"/>
</clipPath>
<clipPath id="clip8_108_38620">
<rect width="18" height="18" fill="white" transform="translate(386 9)"/>
</clipPath>
<clipPath id="clip9_108_38620">
<rect width="36" height="36" fill="white" transform="translate(595)"/>
</clipPath>
<clipPath id="clip10_108_38620">
<rect width="24" height="24" fill="white" transform="translate(651 6)"/>
</clipPath>
</defs>
</svg>
