<svg width="37" height="36" viewBox="0 0 37 36" fill="none" xmlns="http://www.w3.org/2000/svg">
<mask id="path-1-inside-1_1_5151" fill="white">
<path d="M19.8852 35.945C42.627 35.798 42.7827 -0.268545 19.8852 0.00150901C-7.45515 0.173179 -5.78891 37.6269 19.8852 35.945Z"/>
</mask>
<path d="M19.8852 35.945L19.8797 35.0944L19.8546 35.0946L19.8296 35.0962L19.8852 35.945ZM19.8852 0.00150901L19.8905 0.852135L19.8952 0.85208L19.8852 0.00150901ZM19.8907 36.7956C20.4427 36.7921 20.9828 36.7681 21.511 36.7247L21.3714 35.0291C20.8869 35.069 20.3897 35.0911 19.8797 35.0944L19.8907 36.7956ZM24.6982 36.1951C25.7797 35.9179 26.7969 35.5497 27.7492 35.1013L27.0244 33.5622C26.1704 33.9643 25.2544 34.2963 24.2757 34.5472L24.6982 36.1951ZM30.5457 33.4261C31.4277 32.7696 32.2295 32.0341 32.9513 31.2346L31.6885 30.0946C31.0391 30.8139 30.3195 31.4736 29.5299 32.0614L30.5457 33.4261ZM34.8913 28.6347C35.4552 27.7155 35.9378 26.7472 36.3396 25.7449L34.7606 25.1118C34.3929 26.0289 33.9528 26.911 33.4412 27.7452L34.8913 28.6347ZM37.2997 22.6686C37.5392 21.6242 37.7006 20.5598 37.7839 19.4894L36.0877 19.3573C36.0108 20.3455 35.862 21.327 35.6415 22.2884L37.2997 22.6686ZM37.8 16.2756C37.7272 15.2025 37.5758 14.1361 37.3453 13.0905L35.684 13.4567C35.8958 14.418 36.0355 15.4004 36.1027 16.3907L37.8 16.2756ZM36.4065 10.0053C36.0093 8.99867 35.5293 8.02755 34.966 7.10746L33.5151 7.99585C34.0248 8.82829 34.4613 9.71069 34.824 10.6297L36.4065 10.0053ZM33.0173 4.508C32.2906 3.71153 31.4812 2.98161 30.5892 2.33385L29.5895 3.71045C30.3855 4.28841 31.1091 4.94074 31.7606 5.65472L33.0173 4.508ZM27.7648 0.697331C26.8066 0.265793 25.7823 -0.0837364 24.693 -0.340711L24.3024 1.3151C25.2877 1.54753 26.2087 1.86235 27.0662 2.24855L27.7648 0.697331ZM21.4965 -0.808371C20.9681 -0.841748 20.4276 -0.855577 19.8751 -0.849062L19.8952 0.85208C20.4061 0.846054 20.9042 0.858866 21.3893 0.889506L21.4965 -0.808371ZM19.8798 -0.849104C19.3454 -0.845748 18.8211 -0.828536 18.307 -0.797944L18.4081 0.900312C18.8915 0.871546 19.3856 0.855293 19.8905 0.852122L19.8798 -0.849104ZM15.2218 -0.436059C14.155 -0.245311 13.1406 0.00870814 12.1786 0.320316L12.7029 1.93879C13.5891 1.65173 14.5283 1.4162 15.5212 1.23864L15.2218 -0.436059ZM9.26737 1.51307C8.30119 2.0003 7.40426 2.55343 6.57651 3.16339L7.58574 4.53296C8.3362 3.97996 9.15171 3.47673 10.0334 3.03211L9.26737 1.51307ZM4.20542 5.25428C3.4671 6.03142 2.81086 6.86253 2.23593 7.73543L3.65671 8.67121C4.17729 7.88082 4.77108 7.1289 5.43881 6.42604L4.20542 5.25428ZM0.732697 10.517C0.311474 11.4877 -0.0247535 12.4891 -0.277119 13.5082L1.37426 13.9172C1.6044 12.9878 1.9106 12.0763 2.29335 11.1943L0.732697 10.517ZM-0.784997 16.6205C-0.870657 17.6698 -0.872494 18.7246 -0.791405 19.772L0.904779 19.6406C0.830618 18.6828 0.832315 17.7182 0.910622 16.759L-0.784997 16.6205ZM-0.298576 22.8855C-0.0511935 23.9087 0.27905 24.9121 0.691598 25.8823L2.25719 25.2165C1.88196 24.3341 1.58088 23.4198 1.35505 22.4857L-0.298576 22.8855ZM2.17322 28.676C2.74379 29.5575 3.39448 30.3933 4.12462 31.1702L5.3643 30.0051C4.70583 29.3044 4.11789 28.5495 3.6014 27.7516L2.17322 28.676ZM6.49852 33.2711C7.33638 33.885 8.24364 34.4335 9.21911 34.9057L9.96038 33.3745C9.07789 32.9473 8.25906 32.452 7.50406 31.8988L6.49852 33.2711ZM12.1622 36.0297C13.1423 36.3127 14.1738 36.5269 15.2559 36.6654L15.4719 34.9779C14.4741 34.8502 13.5282 34.6533 12.6342 34.3952L12.1622 36.0297ZM18.3646 36.8503C18.8805 36.8475 19.406 36.8289 19.9408 36.7938L19.8296 35.0962C19.328 35.1291 18.8366 35.1464 18.3554 35.149L18.3646 36.8503ZM19.8852 35.945L19.8742 34.2438L19.824 34.2441L19.774 34.2474L19.8852 35.945ZM19.8852 0.00150901L19.8959 1.70276L19.9052 1.70265L19.8852 0.00150901ZM19.8962 37.6462C20.4692 37.6425 21.0307 37.6177 21.5807 37.5724L21.3016 34.1814C20.8389 34.2194 20.3632 34.2406 19.8742 34.2438L19.8962 37.6462ZM24.9095 37.0191C26.0423 36.7287 27.1102 36.3424 28.1116 35.8709L26.6621 32.7926C25.8571 33.1716 24.9918 33.4855 24.0645 33.7232L24.9095 37.0191ZM31.0536 34.1085C31.9817 33.4176 32.8248 32.6441 33.5827 31.8046L31.0571 29.5246C30.4439 30.2038 29.7655 30.8257 29.022 31.3791L31.0536 34.1085ZM35.6164 29.0795C36.2063 28.1178 36.7102 27.1064 37.1292 26.0614L33.9711 24.7952C33.6204 25.6697 33.2017 26.5088 32.7161 27.3004L35.6164 29.0795ZM38.1288 22.8588C38.3779 21.7728 38.5454 20.6669 38.6319 19.5554L35.2397 19.2913C35.166 20.2384 35.0233 21.1783 34.8124 22.0982L38.1288 22.8588ZM38.6487 16.218C38.5731 15.1035 38.4158 13.9951 38.176 12.9074L34.8533 13.6398C35.0559 14.559 35.1896 15.4994 35.254 16.4483L38.6487 16.218ZM37.1977 9.69301C36.7832 8.64266 36.2816 7.62718 35.6914 6.66326L32.7896 8.44004C33.2725 9.22866 33.6873 10.0667 34.0327 10.942L37.1977 9.69301ZM33.6457 3.93464C32.8813 3.09693 32.0291 2.32821 31.089 1.64555L29.0897 4.39875C29.8376 4.94182 30.5184 5.55534 31.1323 6.22808L33.6457 3.93464ZM28.1141 -0.078279C27.1055 -0.532486 26.0297 -0.899371 24.8883 -1.16862L24.1071 2.14301C25.0404 2.36317 25.9097 2.66063 26.7169 3.02416L28.1141 -0.078279ZM21.5502 -1.65731C21 -1.69205 20.4383 -1.70639 19.8651 -1.69963L19.9052 1.70265C20.3954 1.69687 20.8722 1.70917 21.3357 1.73845L21.5502 -1.65731ZM19.8745 -1.69972C19.3253 -1.69627 18.7859 -1.67858 18.2565 -1.64707L18.4586 1.74944C18.9266 1.72159 19.4057 1.70581 19.8959 1.70274L19.8745 -1.69972ZM15.072 -1.27341C13.9684 -1.07606 12.9164 -0.812805 11.9165 -0.48892L12.965 2.74802C13.8133 2.47325 14.7149 2.24695 15.671 2.07599L15.072 -1.27341ZM8.88435 0.753545C7.87592 1.26208 6.93829 1.84016 6.0719 2.4786L8.09036 5.21775C8.80217 4.69322 9.57697 4.21494 10.4164 3.79163L8.88435 0.753545ZM3.58872 4.66839C2.81512 5.48269 2.12764 6.35339 1.52554 7.26754L4.3671 9.1391C4.86051 8.38996 5.42306 7.67763 6.05551 7.01192L3.58872 4.66839ZM-0.0476265 10.1784C-0.48809 11.1934 -0.839331 12.2398 -1.10281 13.3038L2.19996 14.1216C2.41898 13.2371 2.71017 12.3706 3.07367 11.5329L-0.0476265 10.1784ZM-1.63281 16.5513C-1.72214 17.6456 -1.72405 18.7455 -1.6395 19.8376L1.75287 19.575C1.68217 18.6619 1.6838 17.7424 1.75843 16.8282L-1.63281 16.5513ZM-1.12539 23.0854C-0.867231 24.1532 -0.522407 25.2011 -0.0911954 26.2151L3.03998 24.8836C2.68342 24.0452 2.39692 23.1754 2.18186 22.2858L-1.12539 23.0854ZM1.45913 29.1382C2.05674 30.0615 2.7388 30.9377 3.50478 31.7527L5.98414 29.4225C5.36151 28.76 4.80494 28.0455 4.31549 27.2893L1.45913 29.1382ZM5.99575 33.9572C6.87504 34.6015 7.82651 35.1767 8.84847 35.6714L10.331 32.6088C9.49502 32.2041 8.7204 31.7355 8.00682 31.2126L5.99575 33.9572ZM11.9263 36.847C12.9493 37.1423 14.0237 37.3652 15.1478 37.5092L15.58 34.1342C14.6242 34.0118 13.7211 33.8237 12.8701 33.578L11.9263 36.847ZM18.3692 37.7009C18.9025 37.698 19.4449 37.6788 19.9964 37.6426L19.774 34.2474C19.2891 34.2792 18.8147 34.2959 18.3508 34.2984L18.3692 37.7009Z" fill="#384362" fill-opacity="0.5" mask="url(#path-1-inside-1_1_5151)"/>
</svg>
