<svg width="19" height="18" viewBox="0 0 19 18" fill="none" xmlns="http://www.w3.org/2000/svg">
<mask id="path-1-inside-1_1_5152" fill="white">
<path d="M10.2113 17.9725C21.8896 17.899 21.9695 -0.134272 10.2113 0.000754503C-3.82832 0.0865894 -2.97269 18.8134 10.2113 17.9725Z"/>
</mask>
<path d="M10.2113 17.9725L10.2059 17.1219L10.1815 17.122L10.1572 17.1236L10.2113 17.9725ZM10.2113 0.000754503L10.2165 0.851381L10.2211 0.851329L10.2113 0.000754503ZM10.2167 18.8231C10.7445 18.8198 11.2531 18.7823 11.7422 18.7129L11.5031 17.0285C11.0923 17.0868 10.66 17.119 10.2059 17.1219L10.2167 18.8231ZM14.6848 17.8114C15.6485 17.3306 16.4789 16.6988 17.1743 15.9601L15.9354 14.7941C15.3729 15.3917 14.7034 15.9009 13.9253 16.2891L14.6848 17.8114ZM18.8865 13.3962C19.3117 12.4665 19.5951 11.4739 19.739 10.4637L18.0547 10.2238C17.9327 11.0804 17.6933 11.9146 17.3393 12.6886L18.8865 13.3962ZM19.7542 7.42054C19.6196 6.40569 19.3435 5.40946 18.9225 4.47811L17.3723 5.1788C17.721 5.95043 17.9538 6.78497 18.0677 7.64421L19.7542 7.42054ZM17.205 1.90837C16.5044 1.17263 15.665 0.548442 14.6887 0.0807434L13.9537 1.61503C14.7382 1.99087 15.4105 2.49084 15.973 3.08156L17.205 1.90837ZM11.7282 -0.767775C11.2388 -0.827846 10.7297 -0.855885 10.2015 -0.84982L10.2211 0.851329C10.6765 0.846099 11.1096 0.870332 11.521 0.920815L11.7282 -0.767775ZM10.2061 -0.84986C9.64446 -0.846426 9.1031 -0.814671 8.58211 -0.75633L8.77144 0.934362C9.23073 0.882931 9.7123 0.854451 10.2165 0.851369L10.2061 -0.84986ZM5.40099 0.0117101C4.30444 0.441474 3.34908 1.01694 2.53692 1.703L3.63475 3.00263C4.3013 2.43958 5.09474 1.95899 6.02178 1.59566L5.40099 0.0117101ZM0.401231 4.28365C-0.155461 5.27235 -0.523673 6.3409 -0.709006 7.43274L0.968262 7.71745C1.12209 6.81118 1.42681 5.92971 1.88366 5.11834L0.401231 4.28365ZM-0.716143 10.7628C-0.535037 11.8613 -0.1713 12.9321 0.373332 13.9175L1.86229 13.0945C1.4148 12.2849 1.11308 11.3997 0.962456 10.4861L-0.716143 10.7628ZM2.49446 16.5127C3.31745 17.2102 4.28578 17.7821 5.39243 18.1855L5.97516 16.5872C5.05659 16.2523 4.26352 15.782 3.59442 15.2149L2.49446 16.5127ZM8.62652 18.8304C9.15385 18.8598 9.7003 18.8575 10.2654 18.8214L10.1572 17.1236C9.65693 17.1555 9.17825 17.1572 8.72104 17.1318L8.62652 18.8304ZM10.2113 17.9725L10.2006 16.2713L10.1518 16.2716L10.103 16.2747L10.2113 17.9725ZM10.2113 0.000754503L10.2217 1.70201L10.2308 1.7019L10.2113 0.000754503ZM10.222 19.6737C10.7867 19.6702 11.3335 19.6301 11.8618 19.5551L11.3835 16.1863C11.0119 16.2391 10.6178 16.2687 10.2006 16.2713L10.222 19.6737ZM15.0646 18.5726C16.121 18.0455 17.0319 17.3524 17.7937 16.5431L15.316 14.2111C14.8199 14.7381 14.2308 15.186 13.5455 15.528L15.0646 18.5726ZM19.66 13.75C20.1208 12.7424 20.4263 11.6707 20.5811 10.5837L17.2126 10.1039C17.1015 10.8837 16.8841 11.6387 16.5658 12.3348L19.66 13.75ZM20.5975 7.30871C20.4526 6.21605 20.1547 5.13898 19.6977 4.12776L16.5971 5.52915C16.9098 6.22091 17.1208 6.9746 17.2245 7.75605L20.5975 7.30871ZM17.821 1.32178C17.0514 0.513519 16.1284 -0.172772 15.0562 -0.686397L13.5862 2.38217C14.2748 2.71208 14.8635 3.14995 15.3569 3.66815L17.821 1.32178ZM11.8318 -1.61207C11.3033 -1.67693 10.7564 -1.70688 10.1918 -1.70039L10.2308 1.7019C10.6498 1.69709 11.0451 1.71942 11.4173 1.76511L11.8318 -1.61207ZM10.2009 -1.70047C9.61053 -1.69686 9.03929 -1.66347 8.48745 -1.60168L8.8661 1.77971C9.29455 1.73173 9.74622 1.70489 10.2217 1.70198L10.2009 -1.70047ZM5.09059 -0.780266C3.90929 -0.317286 2.87298 0.305618 1.988 1.05319L4.18367 3.65245C4.7774 3.1509 5.48988 2.71775 6.33217 2.38764L5.09059 -0.780266ZM-0.339982 3.86631C-0.946597 4.94367 -1.34656 6.10576 -1.54764 7.29039L1.8069 7.8598C1.94498 7.04632 2.21795 6.25838 2.62487 5.53569L-0.339982 3.86631ZM-1.55544 10.9012C-1.3591 12.0921 -0.96435 13.2558 -0.371145 14.329L2.60676 12.683C2.20785 11.9613 1.93714 11.1689 1.80176 10.3477L-1.55544 10.9012ZM1.94447 17.1616C2.84441 17.9244 3.90037 18.5469 5.10107 18.9847L6.26652 15.788C5.442 15.4874 4.73656 15.0679 4.14441 14.566L1.94447 17.1616ZM8.57926 19.6798C9.14165 19.711 9.72199 19.7084 10.3196 19.6703L10.103 16.2747C9.63524 16.3045 9.19045 16.306 8.7683 16.2825L8.57926 19.6798Z" fill="#384362" fill-opacity="0.5" mask="url(#path-1-inside-1_1_5152)"/>
</svg>
